{"glyphs":{"0":{"ha":1017,"x_min":19,"x_max":997,"o":"m 508 228 q 579 252 556 228 q 603 331 603 276 l 603 750 q 579 828 603 804 q 508 853 556 853 q 438 828 461 853 q 414 750 414 804 l 414 331 q 438 252 414 276 q 508 228 461 228 m 997 540 q 963 281 997 388 q 865 108 928 175 q 711 11 801 42 q 508 -19 621 -19 q 306 11 396 -19 q 152 108 215 42 q 54 281 89 175 q 19 540 19 388 q 54 799 19 692 q 152 972 89 906 q 306 1069 215 1039 q 508 1100 396 1100 q 711 1069 621 1100 q 865 972 801 1039 q 963 799 928 906 q 997 540 997 692 z "},"1":{"ha":735,"x_min":19,"x_max":713,"o":"m 19 1010 l 328 1081 l 596 1081 l 596 228 l 713 228 l 713 0 l 61 0 l 61 228 l 194 228 l 194 853 l 19 853 l 19 1010 z "},"2":{"ha":901,"x_min":17,"x_max":899,"o":"m 17 213 q 215 387 125 304 q 371 540 306 469 q 472 663 436 610 q 508 750 508 717 q 485 828 508 804 q 414 853 461 853 q 343 828 367 853 q 319 750 319 804 l 319 681 l 42 681 l 42 1010 q 121 1042 78 1028 q 222 1071 164 1057 q 347 1092 281 1085 q 481 1100 413 1100 q 775 1020 678 1100 q 872 785 872 940 q 833 623 872 700 q 732 476 793 546 q 598 344 671 406 q 458 228 525 282 l 628 228 l 628 307 l 899 307 l 899 0 l 17 0 l 17 213 z "},"3":{"ha":865,"x_min":33,"x_max":849,"o":"m 303 657 l 401 657 q 477 682 454 657 q 500 750 500 707 q 476 828 500 804 q 406 853 453 853 q 335 828 358 853 q 311 750 311 804 l 311 726 l 33 726 l 33 1010 q 94 1040 58 1024 q 178 1069 129 1056 q 289 1092 226 1083 q 431 1100 351 1100 q 727 1019 626 1100 q 828 792 828 939 q 815 708 828 744 q 784 643 803 671 q 742 594 765 615 q 700 558 719 574 l 700 544 q 748 511 722 531 q 796 464 774 492 q 833 397 818 436 q 849 307 849 358 q 822 173 849 233 q 742 69 796 113 q 608 3 689 26 q 417 -19 526 -19 q 283 -10 342 -19 q 177 12 224 -1 q 95 42 131 25 q 33 76 60 60 l 33 369 l 311 369 l 311 331 q 335 252 311 276 q 406 228 358 228 q 476 253 453 228 q 500 344 500 278 q 477 422 500 396 q 403 447 454 447 l 303 447 l 303 657 z "},"4":{"ha":964,"x_min":25,"x_max":947,"o":"m 193 1081 l 522 1081 l 351 532 l 476 532 l 476 722 l 836 722 l 836 532 l 947 532 l 947 321 l 836 321 l 836 244 l 921 244 l 921 0 l 300 0 l 300 244 l 476 244 l 476 321 l 25 321 l 25 558 l 193 1081 z "},"5":{"ha":904,"x_min":39,"x_max":885,"o":"m 90 1081 l 829 1081 l 829 811 l 368 811 l 356 667 q 446 701 392 688 q 544 714 500 714 q 689 689 625 714 q 796 619 753 664 q 862 510 839 574 q 885 371 885 447 q 771 72 885 178 q 449 -33 657 -33 q 310 -24 372 -33 q 199 -1 249 -15 q 110 32 149 14 q 43 67 72 50 l 43 346 l 365 346 q 380 271 365 297 q 440 244 394 244 q 497 274 481 244 q 513 369 513 303 q 497 472 513 440 q 438 504 481 504 q 381 478 396 504 q 365 421 365 453 l 101 421 l 39 517 l 90 1081 z "},"6":{"ha":963,"x_min":25,"x_max":951,"o":"m 883 807 q 764 838 835 822 q 610 853 693 853 q 465 799 510 853 q 419 663 419 746 l 419 622 q 517 649 461 638 q 624 661 572 661 q 745 647 686 661 q 850 598 804 633 q 924 503 896 563 q 951 351 951 443 q 838 69 951 158 q 514 -19 724 -19 q 311 10 401 -19 q 158 99 221 39 q 60 249 94 158 q 25 464 25 340 q 63 756 25 635 q 171 953 101 876 q 336 1065 240 1029 q 549 1100 432 1100 q 658 1094 608 1100 q 750 1077 708 1088 q 824 1054 792 1067 q 883 1031 857 1042 l 883 807 m 510 443 q 469 439 493 443 q 419 425 446 435 l 419 331 q 443 252 419 276 q 514 228 467 228 q 585 252 561 228 q 608 331 608 276 q 510 443 608 443 z "},"7":{"ha":875,"x_min":14,"x_max":886,"o":"m 14 1081 l 886 1081 l 886 869 q 750 627 797 725 q 669 451 703 529 q 613 297 636 372 q 576 147 590 222 q 563 0 563 71 l 169 0 q 202 217 169 108 q 285 430 235 326 q 395 633 335 533 q 513 811 456 733 l 306 811 l 306 683 l 14 683 l 14 1081 z "},"8":{"ha":972,"x_min":14,"x_max":958,"o":"m 14 294 q 33 403 14 358 q 82 480 53 449 q 145 529 111 511 q 208 556 179 547 l 208 569 q 153 594 182 578 q 100 636 124 610 q 60 701 76 663 q 44 792 44 739 q 72 912 44 856 q 156 1010 100 968 q 294 1076 211 1051 q 486 1100 376 1100 q 678 1076 596 1100 q 816 1010 761 1051 q 898 912 871 968 q 925 792 925 856 q 908 700 925 739 q 867 635 892 661 q 815 593 843 608 q 763 569 786 578 l 763 556 q 826 529 792 547 q 889 481 860 511 q 938 408 918 451 q 958 303 958 364 q 927 170 958 229 q 836 69 896 111 q 688 3 776 26 q 486 -19 600 -19 q 284 3 372 -19 q 136 68 196 26 q 45 167 76 110 q 14 294 14 225 m 594 331 q 567 425 594 397 q 486 453 540 453 q 405 425 432 453 q 378 331 378 397 q 405 252 378 276 q 486 228 432 228 q 567 252 540 228 q 594 331 594 276 m 392 750 q 415 688 392 713 q 486 664 439 664 q 557 688 533 664 q 581 750 581 713 q 557 828 581 804 q 486 853 533 853 q 415 828 439 853 q 392 750 392 804 z "},"9":{"ha":963,"x_min":14,"x_max":940,"o":"m 75 274 q 205 242 129 256 q 376 228 281 228 q 503 277 461 228 q 546 418 546 326 l 546 447 q 458 421 508 433 q 342 408 408 408 q 220 422 279 408 q 115 472 161 436 q 42 567 69 507 q 14 722 14 628 q 127 1010 14 919 q 451 1100 240 1100 q 658 1071 567 1100 q 811 982 749 1042 q 907 831 874 922 q 940 617 940 740 q 905 319 940 440 q 801 122 869 197 q 636 14 733 47 q 417 -19 539 -19 q 216 3 299 -19 q 75 50 133 26 l 75 274 m 456 626 q 505 632 482 626 q 546 644 528 638 l 546 750 q 522 828 546 804 q 451 853 499 853 q 381 828 404 853 q 357 736 357 803 q 456 626 357 626 z "}," ":{"ha":417,"x_min":0,"x_max":0,"o":""},"R":{"ha":1131,"x_min":36,"x_max":1111,"o":"m 508 228 l 600 228 l 600 0 l 36 0 l 36 228 l 119 228 l 119 853 l 36 853 l 36 1081 l 688 1081 q 841 1064 772 1081 q 957 1010 910 1047 q 1030 914 1004 974 q 1056 768 1056 854 q 1019 608 1056 676 q 911 513 982 540 l 913 499 q 1046 335 1046 478 l 1046 228 l 1111 228 l 1111 0 l 671 0 l 671 326 q 662 394 671 368 q 633 433 653 419 q 582 451 613 446 q 508 456 551 456 l 508 228 m 583 625 q 644 646 624 625 q 664 714 664 667 l 664 764 q 644 832 664 811 q 583 853 624 853 l 508 853 l 508 625 l 583 625 z "},"N":{"ha":1322,"x_min":31,"x_max":1314,"o":"m 828 1081 l 1314 1081 l 1314 853 l 1231 853 l 1231 0 l 840 0 l 433 626 l 433 228 l 517 228 l 517 0 l 31 0 l 31 228 l 114 228 l 114 853 l 31 853 l 31 1081 l 546 1081 l 911 522 l 911 853 l 828 853 l 828 1081 z "},"E":{"ha":1021,"x_min":36,"x_max":988,"o":"m 676 853 l 508 853 l 508 633 l 631 633 l 631 475 l 508 475 l 508 228 l 676 228 l 676 447 l 988 447 l 988 0 l 36 0 l 36 228 l 119 228 l 119 853 l 36 853 l 36 1081 l 988 1081 l 988 661 l 676 661 l 676 853 z "},"F":{"ha":894,"x_min":39,"x_max":883,"o":"m 638 853 l 511 853 l 511 622 l 721 622 l 721 464 l 511 464 l 511 228 l 693 228 l 693 0 l 39 0 l 39 228 l 122 228 l 122 853 l 39 853 l 39 1081 l 883 1081 l 883 721 l 638 721 l 638 853 z "},"I":{"ha":608,"x_min":33,"x_max":589,"o":"m 33 1081 l 589 1081 l 589 853 l 506 853 l 506 228 l 589 228 l 589 0 l 33 0 l 33 228 l 117 228 l 117 853 l 33 853 l 33 1081 z "},"L":{"ha":932,"x_min":36,"x_max":910,"o":"m 36 1081 l 636 1081 l 636 853 l 508 853 l 508 228 l 633 228 l 633 356 l 910 356 l 910 0 l 36 0 l 36 228 l 119 228 l 119 853 l 36 853 l 36 1081 z "},"P":{"ha":1047,"x_min":39,"x_max":1031,"o":"m 558 625 q 618 646 597 625 q 639 714 639 667 l 639 764 q 619 832 639 811 q 558 853 599 853 l 511 853 l 511 625 l 558 625 m 644 0 l 39 0 l 39 228 l 122 228 l 122 853 l 39 853 l 39 1081 l 663 1081 q 816 1063 747 1081 q 932 1007 885 1046 q 1005 906 979 968 q 1031 754 1031 843 q 1005 602 1031 664 q 932 501 979 540 q 816 445 885 463 q 663 428 747 428 l 511 428 l 511 228 l 644 228 l 644 0 z "},"B":{"ha":1104,"x_min":36,"x_max":1082,"o":"m 36 1081 l 688 1081 q 957 1011 858 1081 q 1056 807 1056 942 q 1031 693 1056 740 q 969 615 1006 646 q 894 568 933 585 q 825 546 854 551 l 825 532 q 900 519 856 529 q 985 481 944 508 q 1053 406 1025 454 q 1082 281 1082 358 q 1050 149 1082 203 q 964 63 1018 96 q 838 15 910 29 q 688 0 767 0 l 36 0 l 36 228 l 119 228 l 119 853 l 36 853 l 36 1081 m 583 625 q 644 646 624 625 q 664 714 664 667 l 664 764 q 644 832 664 811 q 583 853 624 853 l 508 853 l 508 625 l 583 625 m 593 228 q 653 249 633 228 q 674 317 674 269 l 674 378 q 653 446 674 425 q 593 467 633 467 l 508 467 l 508 228 l 593 228 z "},"D":{"ha":1147,"x_min":39,"x_max":1122,"o":"m 39 1081 l 617 1081 q 816 1053 724 1081 q 976 963 908 1026 q 1083 795 1044 899 q 1122 540 1122 692 q 1083 285 1122 388 q 976 118 1044 182 q 816 27 908 54 q 617 0 724 0 l 39 0 l 39 228 l 122 228 l 122 851 l 39 851 l 39 1081 m 592 228 q 663 252 639 228 q 686 331 686 276 l 686 750 q 661 828 686 804 q 592 853 636 853 l 511 853 l 511 228 l 592 228 z "},"V":{"ha":1078,"x_min":19,"x_max":1078,"o":"m 550 853 l 481 853 l 576 304 l 590 304 l 686 853 l 617 853 l 617 1081 l 1078 1081 l 1078 853 l 1022 853 l 801 0 l 296 0 l 75 853 l 19 853 l 19 1081 l 550 1081 l 550 853 z "},"W":{"ha":1746,"x_min":19,"x_max":1746,"o":"m 268 0 l 75 853 l 19 853 l 19 1081 l 571 1081 l 571 853 l 481 853 l 549 332 l 563 332 l 722 1081 l 1122 1081 l 1272 332 l 1286 332 l 1354 853 l 1264 853 l 1264 1081 l 1746 1081 l 1746 853 l 1690 853 l 1511 0 l 1026 0 l 900 572 l 886 572 l 753 0 l 268 0 z "},"M":{"ha":1671,"x_min":33,"x_max":1649,"o":"m 33 1081 l 697 1081 l 856 604 l 1008 1081 l 1649 1081 l 1649 853 l 1565 853 l 1565 228 l 1649 228 l 1649 0 l 1093 0 l 1093 228 l 1176 228 l 1176 776 l 900 0 l 750 0 l 436 779 l 436 228 l 519 228 l 519 0 l 33 0 l 33 228 l 117 228 l 117 853 l 33 853 l 33 1081 z "},"Z":{"ha":968,"x_min":31,"x_max":949,"o":"m 458 853 l 328 853 l 328 739 l 51 739 l 51 1081 l 926 1081 l 926 881 l 500 228 l 672 228 l 672 342 l 949 342 l 949 0 l 31 0 l 31 200 l 458 853 z "},"U":{"ha":1104,"x_min":31,"x_max":1099,"o":"m 1015 388 q 984 198 1015 275 q 894 72 953 121 q 753 2 836 24 q 569 -19 671 -19 q 381 2 465 -19 q 238 72 297 24 q 147 198 179 121 q 114 388 114 275 l 114 853 l 31 853 l 31 1081 l 558 1081 l 558 853 l 503 853 l 503 317 q 523 249 503 269 q 583 228 543 228 q 644 249 624 228 q 664 317 664 269 l 664 853 l 608 853 l 608 1081 l 1099 1081 l 1099 853 l 1015 853 l 1015 388 z "},"Q":{"ha":1128,"x_min":22,"x_max":1106,"o":"m 553 228 q 624 252 600 228 q 647 331 647 276 l 647 750 q 624 828 647 804 q 553 853 600 853 q 482 828 506 853 q 458 750 458 804 l 458 331 q 482 252 458 276 q 553 228 506 228 m 1083 582 q 1066 447 1083 504 q 1024 350 1049 390 q 974 283 1000 310 q 932 242 949 257 l 940 228 l 1106 228 l 1106 -108 q 742 -99 886 -108 q 504 -69 599 -90 q 344 -19 410 -49 q 244 36 303 -3 q 128 149 185 75 q 47 318 71 222 q 22 540 22 414 q 60 799 22 692 q 166 972 97 906 q 333 1069 235 1039 q 553 1100 432 1100 q 772 1069 674 1100 q 940 974 871 1038 q 1046 812 1008 910 q 1083 582 1083 714 z "},"C":{"ha":1025,"x_min":25,"x_max":983,"o":"m 650 443 l 983 443 l 983 83 q 916 48 956 67 q 824 15 876 29 q 706 -10 772 0 q 558 -19 640 -19 q 338 11 436 -19 q 169 108 239 42 q 63 281 100 175 q 25 540 25 388 q 63 799 25 692 q 169 972 100 906 q 336 1069 238 1039 q 556 1100 435 1100 q 704 1090 639 1100 q 822 1066 769 1081 q 913 1033 874 1051 q 983 997 953 1014 l 983 650 l 650 650 l 650 750 q 626 828 650 804 q 556 853 603 853 q 485 828 508 853 q 461 750 461 804 l 461 331 q 485 252 461 276 q 556 228 508 228 q 626 252 603 228 q 650 331 650 276 l 650 443 z "},"G":{"ha":1100,"x_min":28,"x_max":1083,"o":"m 592 554 l 1083 554 l 1083 347 l 1014 347 l 1014 69 q 940 38 982 54 q 842 10 897 22 q 719 -11 788 -3 q 568 -19 651 -19 q 343 11 443 -19 q 173 108 243 42 q 65 281 103 175 q 28 540 28 388 q 65 799 28 692 q 172 972 103 906 q 342 1069 242 1039 q 565 1100 442 1100 q 719 1092 650 1100 q 842 1070 788 1083 q 940 1041 897 1057 q 1014 1010 982 1025 l 1014 678 l 667 678 l 667 743 q 642 828 667 803 q 565 853 618 853 q 488 828 513 853 q 464 743 464 803 l 464 338 q 488 253 464 278 q 565 228 513 228 q 642 253 618 228 q 667 338 667 278 l 667 347 l 592 347 l 592 554 z "},"K":{"ha":1158,"x_min":36,"x_max":1142,"o":"m 1065 853 l 847 572 l 1086 228 l 1142 228 l 1142 0 l 728 0 l 508 381 l 508 0 l 36 0 l 36 228 l 119 228 l 119 853 l 36 853 l 36 1081 l 508 1081 l 508 707 l 763 1081 l 1121 1081 l 1121 853 l 1065 853 z "},"Y":{"ha":1049,"x_min":17,"x_max":1049,"o":"m 549 853 l 500 853 l 582 610 l 596 610 l 678 853 l 629 853 l 629 1081 l 1049 1081 l 1049 853 l 1000 853 l 732 372 l 732 228 l 815 228 l 815 0 l 260 0 l 260 228 l 343 228 l 343 372 l 67 853 l 17 853 l 17 1081 l 549 1081 l 549 853 z "},"X":{"ha":1147,"x_min":39,"x_max":1128,"o":"m 1058 853 l 910 553 l 1072 228 l 1128 228 l 1128 0 l 686 0 l 569 353 l 542 353 l 425 0 l 39 0 l 39 228 l 94 228 l 256 551 l 107 853 l 51 853 l 51 1081 l 493 1081 l 596 758 l 624 758 l 728 1081 l 1114 1081 l 1114 853 l 1058 853 z "},"J":{"ha":725,"x_min":19,"x_max":722,"o":"m 146 228 q 222 258 193 228 q 250 358 250 288 l 250 853 l 96 853 l 96 1081 l 722 1081 l 722 853 l 639 853 l 639 371 q 606 190 639 264 q 517 69 574 117 q 385 1 461 22 q 225 -19 310 -19 q 104 -10 163 -19 q 19 10 46 -1 l 19 243 q 85 232 50 236 q 146 228 119 228 z "},"S":{"ha":953,"x_min":31,"x_max":936,"o":"m 435 249 q 500 263 481 249 q 519 304 519 276 q 503 338 519 324 q 439 372 488 353 q 259 447 336 411 q 131 525 182 482 q 56 626 81 568 q 31 765 31 683 q 55 905 31 843 q 134 1010 79 967 q 280 1077 189 1054 q 504 1100 371 1100 q 732 1076 625 1100 q 910 1011 839 1051 l 910 763 l 618 763 q 596 817 618 803 q 542 832 574 832 q 476 820 496 832 q 456 779 456 808 q 477 744 456 756 q 542 719 499 733 q 694 664 622 693 q 819 592 765 635 q 905 488 874 549 q 936 338 936 426 q 819 69 936 157 q 478 -19 703 -19 q 232 3 350 -19 q 43 56 114 25 l 43 331 l 349 331 q 365 269 349 289 q 435 249 382 249 z "},"O":{"ha":1108,"x_min":28,"x_max":1089,"o":"m 558 228 q 629 252 606 228 q 653 331 653 276 l 653 750 q 629 828 653 804 q 558 853 606 853 q 488 828 511 853 q 464 750 464 804 l 464 331 q 488 252 464 276 q 558 228 511 228 m 1089 540 q 1051 281 1089 388 q 945 108 1014 175 q 778 11 876 42 q 558 -19 679 -19 q 339 11 438 -19 q 172 108 240 42 q 65 281 103 175 q 28 540 28 388 q 65 799 28 692 q 172 972 103 906 q 339 1069 240 1039 q 558 1100 438 1100 q 778 1069 679 1100 q 945 972 876 1039 q 1051 799 1014 906 q 1089 540 1089 692 z "},"@":{"ha":1594,"x_min":44,"x_max":1544,"o":"m 722 289 q 740 231 722 249 q 786 214 757 214 q 842 232 817 214 q 883 271 868 250 l 883 590 q 853 597 872 593 q 814 600 833 600 q 746 565 769 600 q 722 483 722 531 l 722 289 m 971 -285 q 847 -315 918 -301 q 672 -328 776 -328 q 208 -172 371 -328 q 44 299 44 -17 q 110 632 44 483 q 287 885 175 781 q 549 1044 399 989 q 868 1100 699 1100 q 1151 1058 1026 1100 q 1364 938 1276 1015 q 1498 749 1451 860 q 1544 504 1544 639 q 1508 268 1544 367 q 1415 106 1472 169 q 1284 11 1357 42 q 1139 -19 1211 -19 q 1044 -7 1083 -19 q 979 26 1006 6 q 938 72 953 46 q 915 124 922 97 q 876 76 900 101 q 818 30 851 51 q 744 -6 785 8 q 656 -19 703 -19 q 452 74 521 -19 q 383 326 383 167 q 419 532 383 444 q 518 677 456 619 q 665 763 581 735 q 847 792 750 792 q 1029 768 935 792 q 1203 708 1124 744 l 1203 224 q 1212 201 1203 208 q 1232 193 1221 193 q 1292 267 1264 193 q 1319 474 1319 342 q 1193 789 1319 686 q 839 892 1067 892 q 606 850 711 892 q 426 733 501 808 q 310 551 351 657 q 269 318 269 446 q 301 116 269 199 q 388 -19 332 33 q 522 -94 444 -71 q 694 -117 600 -117 q 870 -107 807 -117 q 971 -83 933 -97 l 971 -285 z "},".":{"ha":339,"x_min":56,"x_max":272,"o":"m 56 228 l 272 228 l 272 0 l 56 0 l 56 228 z "},":":{"ha":339,"x_min":56,"x_max":272,"o":"m 56 721 l 272 721 l 272 493 l 56 493 l 56 721 m 56 228 l 272 228 l 272 0 l 56 0 l 56 228 z "},"d":{"ha":911,"x_min":17,"x_max":897,"o":"m 517 853 l 435 853 l 435 1081 l 836 1081 l 836 228 l 897 228 l 897 0 l 517 0 l 517 94 q 483 58 504 78 q 435 21 463 38 q 374 -8 408 4 q 301 -19 340 -19 q 87 87 157 -19 q 17 386 17 193 q 87 685 17 579 q 301 792 157 792 q 374 780 340 792 q 435 751 408 768 q 483 715 463 735 q 517 678 504 694 l 517 853 m 356 317 q 376 249 356 269 q 436 228 396 228 q 497 249 476 228 q 517 317 517 269 l 517 456 q 497 524 517 503 q 436 544 476 544 q 376 524 396 544 q 356 456 356 503 l 356 317 z "},"i":{"ha":481,"x_min":25,"x_max":467,"o":"m 406 228 l 467 228 l 467 0 l 25 0 l 25 228 l 86 228 l 86 544 l 25 544 l 25 772 l 406 772 l 406 228 m 119 1081 l 375 1081 l 375 849 l 119 849 l 119 1081 z "},"m":{"ha":1442,"x_min":25,"x_max":1428,"o":"m 506 228 l 567 228 l 567 456 q 547 524 567 503 q 486 544 526 544 q 426 524 446 544 q 406 456 406 503 l 406 228 l 467 228 l 467 0 l 25 0 l 25 228 l 86 228 l 86 544 l 25 544 l 25 772 l 406 772 l 406 678 q 443 715 422 694 q 492 751 464 735 q 557 780 521 768 q 640 792 593 792 q 722 781 688 792 q 783 755 757 771 q 826 719 808 739 q 858 678 844 699 q 903 717 879 697 q 958 754 926 738 q 1028 781 989 771 q 1121 792 1068 792 q 1301 710 1235 792 q 1367 456 1367 629 l 1367 228 l 1428 228 l 1428 0 l 986 0 l 986 228 l 1047 228 l 1047 456 q 1027 524 1047 503 q 967 544 1007 544 q 906 524 926 544 q 886 456 886 503 l 886 228 l 947 228 l 947 0 l 506 0 l 506 228 z "},"n":{"ha":956,"x_min":22,"x_max":944,"o":"m 503 228 l 564 228 l 564 456 q 544 524 564 503 q 483 544 524 544 q 423 524 443 544 q 403 456 403 503 l 403 228 l 464 228 l 464 0 l 22 0 l 22 228 l 83 228 l 83 544 l 22 544 l 22 772 l 403 772 l 403 678 q 440 715 419 694 q 490 751 461 735 q 554 780 518 768 q 638 792 590 792 q 817 710 751 792 q 883 456 883 629 l 883 228 l 944 228 l 944 0 l 503 0 l 503 228 z "},"h":{"ha":961,"x_min":25,"x_max":947,"o":"m 506 228 l 567 228 l 567 456 q 547 524 567 503 q 486 544 526 544 q 426 524 446 544 q 406 456 406 503 l 406 228 l 467 228 l 467 0 l 25 0 l 25 228 l 86 228 l 86 853 l 25 853 l 25 1081 l 406 1081 l 406 678 q 443 715 422 694 q 492 751 464 735 q 557 780 521 768 q 640 792 593 792 q 820 710 754 792 q 886 456 886 629 l 886 228 l 947 228 l 947 0 l 506 0 l 506 228 z "},"s":{"ha":742,"x_min":8,"x_max":733,"o":"m 49 217 q 219 197 153 201 q 325 192 286 192 q 406 201 386 192 q 425 228 425 211 q 404 255 425 246 q 318 274 383 264 q 91 357 174 293 q 8 538 8 421 q 28 638 8 592 q 90 719 47 685 q 201 772 133 753 q 363 792 268 792 q 548 780 465 792 q 685 750 631 768 l 685 563 q 550 576 618 571 q 421 582 482 582 q 338 574 363 582 q 314 549 314 565 q 318 534 314 540 q 334 523 322 528 q 367 515 346 518 q 419 508 388 511 q 657 429 581 493 q 733 247 733 365 q 649 52 733 124 q 383 -19 564 -19 q 191 -7 278 -19 q 49 24 104 6 l 49 217 z "},"b":{"ha":922,"x_min":25,"x_max":906,"o":"m 406 678 q 438 715 418 694 q 486 751 458 735 q 547 780 514 768 q 621 792 581 792 q 835 685 765 792 q 906 386 906 579 q 835 87 906 193 q 621 -19 765 -19 q 547 -8 581 -19 q 486 21 514 4 q 438 58 458 38 q 406 94 418 78 l 406 0 l 25 0 l 25 228 l 86 228 l 86 853 l 25 853 l 25 1081 l 406 1081 l 406 678 m 567 456 q 547 524 567 503 q 486 544 526 544 q 426 524 446 544 q 406 456 406 503 l 406 317 q 426 249 406 269 q 486 228 446 228 q 547 249 526 228 q 567 317 567 269 l 567 456 z "},"p":{"ha":903,"x_min":6,"x_max":886,"o":"m 482 -308 l 6 -308 l 6 -81 l 67 -81 l 67 544 l 6 544 l 6 772 l 386 772 l 386 678 q 419 715 399 694 q 467 751 439 735 q 528 780 494 768 q 601 792 561 792 q 816 685 746 792 q 886 386 886 579 q 816 87 886 193 q 601 -19 746 -19 q 528 -8 561 -19 q 467 21 494 4 q 419 58 439 38 q 386 94 399 78 l 386 -81 l 482 -81 l 482 -308 m 547 456 q 527 524 547 503 q 467 544 507 544 q 406 524 426 544 q 386 456 386 503 l 386 317 q 406 249 386 269 q 467 228 426 228 q 527 249 507 228 q 547 317 547 269 l 547 456 z "},"q":{"ha":908,"x_min":17,"x_max":897,"o":"m 517 94 q 483 58 504 78 q 435 21 463 38 q 374 -8 408 4 q 301 -19 340 -19 q 87 87 157 -19 q 17 386 17 193 q 87 685 17 579 q 301 792 157 792 q 374 780 340 792 q 435 751 408 768 q 483 715 463 735 q 517 678 504 694 l 517 772 l 897 772 l 897 544 l 836 544 l 836 -308 l 421 -308 l 421 -81 l 517 -81 l 517 94 m 356 317 q 376 249 356 269 q 436 228 396 228 q 497 249 476 228 q 517 317 517 269 l 517 456 q 497 524 517 503 q 436 544 476 544 q 376 524 396 544 q 356 456 356 503 l 356 317 z "},"l":{"ha":481,"x_min":25,"x_max":467,"o":"m 25 1081 l 406 1081 l 406 228 l 467 228 l 467 0 l 25 0 l 25 228 l 86 228 l 86 853 l 25 853 l 25 1081 z "},"g":{"ha":911,"x_min":17,"x_max":897,"o":"m 517 772 l 897 772 l 897 544 l 836 544 l 836 56 q 810 -120 836 -47 q 733 -239 785 -193 q 607 -306 682 -285 q 435 -328 532 -328 q 249 -314 343 -328 q 103 -282 154 -300 l 103 -54 q 230 -73 161 -65 q 367 -81 299 -81 q 483 -55 449 -81 q 517 35 517 -29 l 517 94 q 483 58 504 78 q 435 21 463 38 q 374 -8 408 4 q 301 -19 340 -19 q 87 87 157 -19 q 17 386 17 193 q 87 685 17 579 q 301 792 157 792 q 374 780 340 792 q 435 751 408 768 q 483 715 463 735 q 517 678 504 694 l 517 772 m 356 317 q 376 249 356 269 q 436 228 396 228 q 497 249 476 228 q 517 317 517 269 l 517 456 q 497 524 517 503 q 436 544 476 544 q 376 524 396 544 q 356 456 356 503 l 356 317 z "},"k":{"ha":936,"x_min":25,"x_max":922,"o":"m 847 544 l 729 413 l 863 228 l 922 228 l 922 0 l 582 0 l 439 267 l 406 267 l 406 0 l 25 0 l 25 228 l 86 228 l 86 853 l 25 853 l 25 1081 l 406 1081 l 406 517 l 439 517 l 611 772 l 904 772 l 904 544 l 847 544 z "},"o":{"ha":861,"x_min":11,"x_max":850,"o":"m 850 386 q 821 208 850 283 q 737 81 792 132 q 604 6 682 31 q 431 -19 526 -19 q 257 6 335 -19 q 124 81 179 31 q 40 208 69 132 q 11 386 11 283 q 40 564 11 488 q 124 691 69 640 q 257 767 179 742 q 431 792 335 792 q 604 767 526 792 q 737 691 682 742 q 821 564 792 640 q 850 386 850 488 m 431 228 q 491 249 471 228 q 511 317 511 269 l 511 456 q 491 524 511 503 q 431 544 471 544 q 370 524 390 544 q 350 456 350 503 l 350 317 q 370 249 350 269 q 431 228 390 228 z "},"u":{"ha":939,"x_min":3,"x_max":925,"o":"m 383 317 q 403 249 383 269 q 464 228 424 228 q 524 249 504 228 q 544 317 544 269 l 544 544 l 469 544 l 469 772 l 864 772 l 864 228 l 925 228 l 925 0 l 544 0 l 544 94 q 506 57 528 76 q 457 21 485 38 q 393 -8 429 4 q 310 -19 357 -19 q 130 62 196 -19 q 64 317 64 143 l 64 544 l 3 544 l 3 772 l 383 772 l 383 317 z "},"c":{"ha":769,"x_min":11,"x_max":750,"o":"m 350 336 q 378 256 350 285 q 474 228 407 228 q 610 235 542 228 q 742 253 678 242 l 742 35 q 685 15 715 25 q 617 -2 654 6 q 534 -15 579 -10 q 432 -19 489 -19 q 257 6 335 -19 q 124 81 179 31 q 40 208 69 132 q 11 386 11 283 q 40 564 11 488 q 124 691 69 640 q 257 767 179 742 q 431 792 335 792 q 537 783 489 792 q 624 763 585 775 q 694 735 663 750 q 750 706 725 719 l 750 431 l 511 431 l 511 456 q 491 524 511 503 q 431 544 471 544 q 371 524 392 544 q 350 456 350 503 l 350 336 z "},"e":{"ha":817,"x_min":11,"x_max":800,"o":"m 431 792 q 608 760 538 792 q 722 679 679 729 q 783 565 765 629 q 800 436 800 501 l 800 336 l 350 336 l 350 328 q 378 253 350 278 q 482 228 407 228 q 650 242 574 228 q 776 272 726 256 l 776 50 q 719 26 751 38 q 644 3 686 14 q 550 -13 603 -7 q 431 -19 497 -19 q 257 6 335 -19 q 124 81 179 31 q 40 208 69 132 q 11 386 11 283 q 40 564 11 488 q 124 691 69 640 q 257 767 179 742 q 431 792 335 792 m 431 544 q 370 524 390 544 q 350 456 350 503 l 350 447 l 511 447 l 511 456 q 491 524 511 503 q 431 544 471 544 z "},"z":{"ha":775,"x_min":14,"x_max":764,"o":"m 353 544 l 229 544 l 229 494 l 22 494 l 22 772 l 751 772 l 751 574 l 421 228 l 554 228 l 554 306 l 764 306 l 764 0 l 14 0 l 14 207 l 353 544 z "},"a":{"ha":906,"x_min":11,"x_max":892,"o":"m 511 94 q 478 58 499 78 q 427 21 457 38 q 358 -8 397 4 q 268 -19 318 -19 q 79 36 147 -19 q 11 197 11 92 q 134 397 11 329 q 511 464 257 464 q 486 524 511 503 q 383 544 461 544 q 216 532 300 544 q 61 504 132 519 l 61 743 q 235 777 132 763 q 446 792 338 792 q 631 771 557 792 q 750 708 706 750 q 813 602 794 665 q 831 456 831 539 l 831 228 l 892 228 l 892 0 l 511 0 l 511 94 m 511 325 q 388 313 425 325 q 350 272 350 301 q 426 228 350 228 q 511 317 511 228 l 511 325 z "},"v":{"ha":892,"x_min":6,"x_max":886,"o":"m 439 772 l 439 544 l 376 544 l 451 228 l 465 228 l 540 544 l 478 544 l 478 772 l 886 772 l 886 544 l 826 544 l 682 0 l 213 0 l 64 544 l 6 544 l 6 772 l 439 772 z "},"f":{"ha":528,"x_min":25,"x_max":610,"o":"m 25 772 l 89 772 q 172 1020 89 940 q 413 1100 256 1100 q 524 1090 472 1100 q 610 1064 575 1079 l 610 846 q 552 851 575 850 q 501 853 529 853 q 426 835 447 853 q 406 772 406 817 l 514 772 l 514 544 l 406 544 l 406 228 l 514 228 l 514 0 l 25 0 l 25 228 l 86 228 l 86 544 l 25 544 l 25 772 z "},"j":{"ha":454,"x_min":-125,"x_max":418,"o":"m 6 772 l 418 772 l 418 47 q 338 -237 418 -146 q 94 -328 258 -328 q -19 -319 36 -328 q -125 -297 -75 -311 l -125 -71 q -49 -78 -82 -76 q 6 -81 -17 -81 q 74 -57 50 -81 q 99 19 99 -33 l 99 544 l 6 544 l 6 772 m 132 1081 l 388 1081 l 388 849 l 132 849 l 132 1081 z "},"r":{"ha":724,"x_min":25,"x_max":710,"o":"m 25 772 l 406 772 l 406 681 l 419 676 q 444 717 429 696 q 482 754 460 738 q 533 781 504 771 q 597 792 561 792 q 654 788 626 792 q 710 772 682 783 l 710 532 q 633 542 664 540 q 581 544 601 544 q 447 503 489 544 q 406 363 406 463 l 406 228 l 532 228 l 532 0 l 25 0 l 25 228 l 86 228 l 86 544 l 25 544 l 25 772 z "},"t":{"ha":621,"x_min":6,"x_max":601,"o":"m 406 772 l 593 772 l 593 544 l 406 544 l 406 317 q 426 249 406 269 q 486 228 446 228 q 601 240 542 228 l 601 22 q 495 -7 557 6 q 363 -19 433 -19 q 237 -4 292 -19 q 144 48 182 11 q 87 144 107 85 q 67 293 67 204 l 67 544 l 6 544 l 6 772 q 86 801 61 772 q 111 874 111 829 l 111 936 l 406 936 l 406 772 z "},"w":{"ha":1340,"x_min":6,"x_max":1335,"o":"m 439 772 l 439 544 l 376 544 l 426 258 l 440 258 l 547 772 l 817 772 l 929 258 l 943 258 l 989 544 l 925 544 l 925 772 l 1335 772 l 1335 544 l 1275 544 l 1140 0 l 726 0 l 676 233 l 663 233 l 615 0 l 206 0 l 64 544 l 6 544 l 6 772 l 439 772 z "},"x":{"ha":879,"x_min":25,"x_max":865,"o":"m 800 544 l 728 382 l 806 228 l 865 228 l 865 0 l 497 0 l 428 261 l 400 261 l 338 0 l 25 0 l 25 228 l 90 228 l 168 396 l 94 544 l 35 544 l 35 772 l 404 772 l 468 518 l 496 518 l 554 772 l 857 772 l 857 544 l 800 544 z "},"y":{"ha":900,"x_min":3,"x_max":864,"o":"m 383 317 q 403 249 383 269 q 464 228 424 228 q 524 249 504 228 q 544 317 544 269 l 544 544 l 469 544 l 469 772 l 864 772 l 864 78 q 759 -229 864 -131 q 446 -328 654 -328 q 252 -315 346 -328 q 93 -282 158 -301 l 93 -54 q 238 -74 169 -68 q 394 -81 307 -81 q 507 -58 469 -81 q 544 36 544 -35 l 544 94 q 506 57 528 76 q 457 21 485 38 q 393 -8 429 4 q 310 -19 357 -19 q 130 62 196 -19 q 64 317 64 143 l 64 544 l 3 544 l 3 772 l 383 772 l 383 317 z "},"´":{"ha":388,"x_min":-15,"x_max":433,"o":"m 207 849 l -15 849 l -15 869 l 136 1081 l 433 1081 l 433 1043 l 207 849 z "},"`":{"ha":371,"x_min":-58,"x_max":390,"o":"m -58 1043 l -58 1081 l 239 1081 l 390 869 l 390 849 l 168 849 l -58 1043 z "},"¨":{"ha":628,"x_min":21,"x_max":607,"o":"m 21 1081 l 253 1081 l 253 849 l 21 849 l 21 1081 m 376 1081 l 607 1081 l 607 849 l 376 849 l 376 1081 z "},"ˆ":{"ha":599,"x_min":0,"x_max":599,"o":"m 306 939 l 293 939 l 207 849 l 0 849 l 0 869 l 163 1081 l 436 1081 l 599 869 l 599 849 l 392 849 l 306 939 z "},"˜":{"ha":690,"x_min":57,"x_max":647,"o":"m 57 864 q 64 963 57 918 q 90 1038 71 1007 q 141 1085 108 1068 q 224 1101 174 1101 q 300 1092 263 1101 q 374 1069 338 1082 q 444 1047 410 1057 q 515 1038 479 1038 q 558 1054 547 1038 q 569 1086 569 1071 l 647 1086 q 642 988 647 1032 q 619 913 636 944 q 572 865 603 882 q 490 849 540 849 q 417 859 454 849 q 342 882 381 869 q 266 905 304 894 q 192 915 228 915 q 145 897 160 915 q 131 864 131 879 l 57 864 z "},"<":{"ha":693,"x_min":50,"x_max":632,"o":"m 603 96 l 50 319 l 50 575 l 603 800 l 632 800 l 632 583 l 256 456 l 256 440 l 632 311 l 632 96 l 603 96 z "},"/":{"ha":588,"x_min":-28,"x_max":615,"o":"m 418 1169 l 615 1169 l 615 1125 l 171 -210 l -28 -210 l -28 -165 l 418 1169 z "},"\\":{"ha":589,"x_min":-28,"x_max":617,"o":"m 617 -165 l 617 -210 l 417 -210 l -28 1125 l -28 1169 l 171 1169 l 617 -165 z "},",":{"ha":340,"x_min":56,"x_max":274,"o":"m 57 228 l 274 228 l 274 0 l 175 -224 l 56 -224 l 128 0 l 57 0 l 57 228 z "},";":{"ha":340,"x_min":56,"x_max":274,"o":"m 57 228 l 274 228 l 274 0 l 175 -224 l 56 -224 l 128 0 l 57 0 l 57 228 m 57 721 l 274 721 l 274 493 l 57 493 l 57 721 z "},"~":{"ha":858,"x_min":42,"x_max":817,"o":"m 42 332 q 48 412 42 368 q 76 494 54 456 q 139 559 97 533 q 253 585 181 585 q 363 574 315 585 q 453 552 410 564 q 543 530 497 540 q 649 519 589 519 q 722 536 704 519 q 739 569 739 553 l 817 569 q 812 488 817 532 q 787 405 807 443 q 726 342 767 367 q 615 317 686 317 q 506 327 553 317 q 414 350 458 338 q 322 373 369 363 q 213 383 275 383 q 165 378 183 383 q 135 365 146 372 q 119 348 124 357 q 115 332 115 339 l 42 332 z "},"?":{"ha":853,"x_min":3,"x_max":844,"o":"m 196 293 l 196 368 q 215 468 196 426 q 263 540 233 510 q 324 594 292 571 q 386 638 357 617 q 434 683 415 660 q 453 736 453 706 q 435 776 453 760 q 369 792 417 792 q 289 784 329 792 q 211 765 249 776 q 140 738 174 753 q 76 710 106 724 l 3 993 q 87 1030 40 1011 q 188 1064 133 1049 q 307 1090 243 1079 q 442 1100 371 1100 q 610 1077 535 1100 q 737 1013 685 1054 q 817 917 789 972 q 844 799 844 863 q 821 665 844 717 q 763 578 797 614 q 686 517 728 543 q 610 463 644 492 q 551 395 575 435 q 528 293 528 356 l 196 293 m 196 228 l 526 228 l 526 0 l 196 0 l 196 228 z "},"¿":{"ha":853,"x_min":8,"x_max":850,"o":"m 657 479 l 657 404 q 638 304 657 346 q 590 232 619 263 q 528 178 561 201 q 467 134 496 156 q 419 90 438 113 q 400 36 400 67 q 418 -3 400 13 q 483 -19 436 -19 q 640 7 565 -19 q 776 63 715 33 l 850 -221 q 664 -294 775 -260 q 411 -328 553 -328 q 242 -305 317 -328 q 116 -241 168 -282 q 36 -145 64 -200 q 8 -26 8 -90 q 32 107 8 56 q 90 194 56 158 q 167 255 125 229 q 243 309 208 281 q 301 377 278 338 q 325 479 325 417 l 657 479 m 657 544 l 326 544 l 326 772 l 657 772 l 657 544 z "},"\"":{"ha":560,"x_min":39,"x_max":524,"o":"m 99 1081 l 285 1081 l 178 772 l 39 772 l 99 1081 m 339 1081 l 524 1081 l 418 772 l 279 772 l 339 1081 z "},"’":{"ha":292,"x_min":42,"x_max":236,"o":"m 42 1081 l 236 1081 l 236 903 l 143 761 l 50 761 l 110 903 l 42 903 l 42 1081 z "},"‘":{"ha":292,"x_min":56,"x_max":250,"o":"m 250 761 l 56 761 l 56 939 l 149 1081 l 242 1081 l 182 939 l 250 939 l 250 761 z "},"”":{"ha":536,"x_min":42,"x_max":481,"o":"m 42 1081 l 236 1081 l 236 903 l 143 761 l 50 761 l 110 903 l 42 903 l 42 1081 m 286 1081 l 481 1081 l 481 903 l 388 761 l 294 761 l 354 903 l 286 903 l 286 1081 z "},"“":{"ha":536,"x_min":56,"x_max":494,"o":"m 494 761 l 300 761 l 300 939 l 393 1081 l 486 1081 l 426 939 l 494 939 l 494 761 m 250 761 l 56 761 l 56 939 l 149 1081 l 242 1081 l 182 939 l 250 939 l 250 761 z "},"!":{"ha":476,"x_min":28,"x_max":443,"o":"m 74 213 l 394 213 l 394 0 l 74 0 l 74 213 m 28 1010 l 28 1081 l 443 1081 l 443 1010 l 378 260 l 92 260 l 28 1010 z "},"¡":{"ha":476,"x_min":33,"x_max":449,"o":"m 403 560 l 82 560 l 82 772 l 403 772 l 403 560 m 449 -237 l 449 -308 l 33 -308 l 33 -237 l 99 485 l 385 485 l 449 -237 z "},"µ":{"ha":936,"x_min":0,"x_max":922,"o":"m 61 544 l 0 544 l 0 772 l 381 772 l 381 317 q 401 249 381 269 q 461 228 421 228 q 522 249 501 228 q 542 317 542 269 l 542 544 l 467 544 l 467 772 l 861 772 l 861 228 l 922 228 l 922 0 l 542 0 l 542 94 q 508 58 529 78 q 460 21 488 38 q 400 -8 433 4 q 329 -19 367 -19 l 381 -308 l 61 -308 l 61 544 z "},"(":{"ha":486,"x_min":50,"x_max":506,"o":"m 50 456 q 79 733 50 610 q 153 951 108 856 q 251 1115 197 1046 q 354 1233 306 1185 l 506 1164 q 438 1044 472 1113 q 374 888 403 975 q 326 692 344 800 q 308 456 308 585 q 327 217 308 325 q 374 24 346 110 q 438 -130 403 -62 q 506 -246 472 -197 l 354 -318 q 252 -204 306 -272 q 153 -41 199 -136 q 79 177 108 54 q 50 456 50 300 z "},")":{"ha":486,"x_min":-19,"x_max":436,"o":"m 436 456 q 406 176 436 300 q 331 -42 376 53 q 233 -205 286 -136 q 132 -318 179 -274 l -19 -246 q 47 -129 13 -196 q 111 24 82 -62 q 159 218 140 111 q 178 456 178 325 q 159 692 178 585 q 111 886 140 799 q 47 1042 82 974 q -19 1164 13 1111 l 132 1233 q 233 1117 179 1186 q 332 951 288 1047 q 406 733 376 856 q 436 456 436 610 z "},"&":{"ha":1093,"x_min":-7,"x_max":1101,"o":"m 594 750 q 571 828 594 804 q 500 853 547 853 q 433 832 453 853 q 413 779 413 811 q 421 750 413 764 q 442 724 429 736 q 472 699 456 711 q 503 675 488 688 l 729 504 q 733 538 732 521 q 735 571 735 554 l 735 596 l 1069 596 l 1069 364 l 989 364 l 976 318 l 1101 224 l 932 0 l 831 78 q 695 10 779 39 q 485 -19 611 -19 q 117 63 242 -19 q -7 292 -7 146 q 10 385 -7 343 q 55 462 26 428 q 120 522 83 496 q 197 568 157 549 q 84 678 126 621 q 42 818 42 735 q 75 939 42 886 q 168 1027 108 992 q 309 1081 228 1063 q 486 1100 390 1100 q 626 1090 564 1100 q 736 1065 688 1081 q 822 1032 785 1050 q 886 997 858 1014 l 886 731 l 594 731 l 594 750 m 500 228 q 604 253 564 228 l 428 389 q 386 352 401 375 q 371 300 371 329 q 398 246 371 264 q 500 228 425 228 z "},"+":{"ha":800,"x_min":56,"x_max":744,"o":"m 285 592 l 285 821 l 517 821 l 517 592 l 744 592 l 744 360 l 517 360 l 517 131 l 285 131 l 285 360 l 56 360 l 56 592 l 285 592 z "},"-":{"ha":540,"x_min":47,"x_max":493,"o":"m 47 329 l 47 557 l 493 557 l 493 329 l 47 329 z "},"'":{"ha":353,"x_min":39,"x_max":317,"o":"m 99 1081 l 317 1081 l 210 772 l 39 772 l 99 1081 z "},"*":{"ha":568,"x_min":22,"x_max":546,"o":"m 343 926 l 446 1013 l 461 1022 l 546 879 l 529 869 l 389 824 l 529 778 l 546 765 l 461 626 l 343 719 l 368 589 l 368 568 l 201 568 l 201 589 l 226 719 l 122 636 l 106 626 l 22 765 l 38 778 l 176 824 l 38 869 l 22 879 l 106 1022 l 122 1013 l 226 926 l 201 1057 l 201 1081 l 368 1081 l 368 1057 l 343 926 z "},"×":{"ha":792,"x_min":44,"x_max":747,"o":"m 396 290 l 217 111 l 44 282 l 224 461 l 44 642 l 217 814 l 396 633 l 576 814 l 747 642 l 567 461 l 747 282 l 576 111 l 396 290 z "},">":{"ha":693,"x_min":61,"x_max":643,"o":"m 61 96 l 61 311 l 438 440 l 438 456 l 61 583 l 61 800 l 90 800 l 643 575 l 643 319 l 90 96 l 61 96 z "},"=":{"ha":688,"x_min":56,"x_max":632,"o":"m 632 401 l 632 169 l 56 169 l 56 401 l 632 401 m 632 768 l 632 538 l 56 538 l 56 768 l 632 768 z "},"[":{"ha":451,"x_min":61,"x_max":449,"o":"m 61 1213 l 432 1244 l 449 1065 l 294 1033 l 294 -186 l 449 -218 l 432 -397 l 61 -365 l 61 1213 z "},"]":{"ha":451,"x_min":3,"x_max":390,"o":"m 390 -365 l 19 -397 l 3 -218 l 157 -186 l 157 1033 l 3 1065 l 19 1244 l 390 1213 l 390 -365 z "},"±":{"ha":801,"x_min":56,"x_max":746,"o":"m 286 808 l 286 1039 l 518 1039 l 518 808 l 746 808 l 746 576 l 518 576 l 518 349 l 286 349 l 286 576 l 56 576 l 56 808 l 286 808 m 718 278 l 718 58 l 79 58 l 79 278 l 718 278 z "},"•":{"ha":476,"x_min":49,"x_max":428,"o":"m 49 533 q 63 607 49 572 q 104 667 78 642 q 165 708 131 693 q 239 722 199 722 q 312 708 278 722 q 372 667 346 693 q 413 607 397 642 q 428 533 428 572 q 413 460 428 494 q 372 401 397 426 q 312 360 346 375 q 239 346 278 346 q 165 360 199 346 q 104 401 131 375 q 63 460 78 426 q 49 533 49 494 z "},"–":{"ha":835,"x_min":33,"x_max":801,"o":"m 33 294 l 33 504 l 801 504 l 801 294 l 33 294 z "},"—":{"ha":1371,"x_min":33,"x_max":1338,"o":"m 33 294 l 33 504 l 1338 504 l 1338 294 l 33 294 z "},"^":{"ha":574,"x_min":19,"x_max":554,"o":"m 293 922 l 281 922 l 194 725 l 19 725 l 19 746 l 182 1081 l 392 1081 l 554 746 l 554 725 l 379 725 l 293 922 z "},"_":{"ha":878,"x_min":22,"x_max":856,"o":"m 22 -100 l 856 -100 l 856 -231 l 22 -231 l 22 -100 z "},"{":{"ha":415,"x_min":31,"x_max":376,"o":"m 31 497 q 57 501 43 497 q 82 517 71 506 q 101 547 93 528 q 108 594 108 565 q 103 701 108 656 q 90 788 97 746 q 78 876 83 831 q 72 985 72 922 q 102 1095 72 1056 q 177 1155 132 1135 q 276 1180 222 1175 q 376 1185 329 1185 l 376 1061 q 324 1044 347 1061 q 301 971 301 1026 q 306 876 301 917 q 317 795 311 835 q 329 713 324 756 q 335 611 335 669 q 303 484 335 528 q 228 421 272 440 q 303 358 272 401 q 335 232 335 315 q 329 131 335 174 q 317 48 324 88 q 306 -33 311 8 q 301 -128 301 -74 q 308 -174 301 -157 q 326 -202 315 -192 q 351 -216 338 -212 q 376 -219 364 -219 l 376 -343 q 276 -338 329 -343 q 177 -313 222 -333 q 102 -253 132 -293 q 72 -142 72 -212 q 78 -35 72 -81 q 90 53 83 11 q 103 142 97 96 q 108 249 108 188 q 101 297 108 278 q 82 326 93 315 q 57 342 71 338 q 31 346 43 346 l 31 497 z "},"}":{"ha":415,"x_min":39,"x_max":385,"o":"m 385 346 q 359 342 372 346 q 335 326 346 338 q 316 297 324 315 q 308 249 308 278 q 314 142 308 188 q 326 53 319 96 q 338 -35 332 11 q 343 -142 343 -81 q 313 -253 343 -212 q 238 -313 283 -293 q 140 -338 193 -333 q 39 -343 86 -343 l 39 -219 q 65 -216 51 -219 q 90 -202 79 -212 q 108 -174 101 -192 q 115 -128 115 -157 q 110 -33 115 -74 q 98 48 104 8 q 86 131 92 88 q 81 232 81 174 q 113 358 81 315 q 189 421 144 401 q 113 484 144 440 q 81 611 81 528 q 86 713 81 669 q 98 795 92 756 q 110 876 104 835 q 115 971 115 917 q 92 1044 115 1026 q 39 1061 68 1061 l 39 1185 q 140 1180 86 1185 q 238 1155 193 1175 q 313 1095 283 1135 q 343 985 343 1056 q 338 876 343 922 q 326 788 332 831 q 314 701 319 746 q 308 594 308 656 q 316 547 308 565 q 335 517 324 528 q 359 501 346 506 q 385 497 372 497 l 385 346 z "},"|":{"ha":354,"x_min":86,"x_max":268,"o":"m 86 -454 l 86 1306 l 268 1306 l 268 -454 l 86 -454 z "},"¢":{"ha":769,"x_min":11,"x_max":750,"o":"m 325 -144 l 325 -11 q 94 112 178 14 q 11 386 11 210 q 94 660 11 561 q 325 783 178 758 l 325 913 l 507 913 l 507 788 q 653 753 596 776 q 750 706 711 731 l 750 431 l 511 431 l 511 456 q 491 524 511 503 q 431 544 471 544 q 371 524 392 544 q 350 456 350 503 l 350 336 q 378 256 350 285 q 474 228 407 228 q 610 235 542 228 q 742 253 678 242 l 742 35 q 646 5 701 19 q 507 -17 590 -10 l 507 -144 l 325 -144 z "},"ˇ":{"ha":599,"x_min":0,"x_max":599,"o":"m 392 1081 l 599 1081 l 599 1060 l 436 849 l 163 849 l 0 1060 l 0 1081 l 207 1081 l 293 990 l 306 990 l 392 1081 z "},"£":{"ha":856,"x_min":33,"x_max":850,"o":"m 35 611 l 101 611 q 78 683 88 642 q 69 788 69 725 q 94 906 69 850 q 168 1006 118 963 q 295 1074 218 1049 q 479 1100 372 1100 q 671 1078 583 1100 q 821 1021 758 1057 l 821 790 l 569 790 l 569 819 q 550 844 567 831 q 493 858 533 858 q 425 836 447 858 q 403 761 403 814 q 412 685 403 722 q 432 611 421 649 l 663 611 l 663 438 l 458 438 q 447 347 457 389 q 418 274 436 306 q 474 254 446 263 q 543 246 503 246 q 595 253 575 246 q 627 271 615 260 q 643 294 639 282 q 647 317 647 306 l 850 317 q 841 205 850 264 q 802 96 832 146 q 714 13 772 46 q 558 -19 656 -19 q 476 -12 510 -19 q 412 4 442 -4 q 351 20 382 13 q 281 28 321 28 q 194 14 225 28 q 153 -14 164 0 l 33 106 q 72 157 51 128 q 111 222 93 186 q 141 301 129 258 q 153 393 153 343 q 153 415 153 404 q 151 438 153 426 l 35 438 l 35 611 z "},"%":{"ha":1181,"x_min":19,"x_max":1161,"o":"m 874 1081 l 1071 1081 l 1071 1036 l 307 0 l 108 0 l 108 44 l 874 1081 m 676 260 q 694 392 676 339 q 743 478 711 446 q 820 525 775 511 q 921 539 865 539 q 1019 524 975 539 q 1095 477 1064 510 q 1144 391 1126 444 q 1161 260 1161 338 q 1144 127 1161 181 q 1095 41 1126 74 q 1019 -6 1064 8 q 921 -19 975 -19 q 820 -6 865 -19 q 743 41 775 8 q 694 127 711 74 q 676 260 676 181 m 871 264 q 873 192 871 219 q 880 151 875 165 q 894 132 885 136 q 917 128 903 128 q 940 133 931 128 q 955 154 950 139 q 962 196 960 169 q 964 264 964 222 q 963 332 964 306 q 956 374 961 358 q 941 394 950 389 q 917 400 932 400 q 894 394 903 400 q 880 374 885 389 q 873 332 875 358 q 871 264 871 306 m 19 821 q 37 953 19 900 q 86 1040 54 1007 q 163 1086 118 1072 q 264 1100 208 1100 q 363 1085 318 1100 q 438 1038 407 1071 q 487 952 469 1006 q 504 821 504 899 q 487 688 504 742 q 438 602 469 635 q 363 556 407 569 q 264 542 318 542 q 163 556 208 542 q 86 602 118 569 q 37 688 54 635 q 19 821 19 742 m 214 825 q 216 753 214 781 q 223 712 218 726 q 237 693 228 697 q 260 689 246 689 q 284 694 275 689 q 299 715 293 700 q 306 757 304 731 q 307 825 307 783 q 306 893 307 867 q 299 935 304 919 q 284 956 293 950 q 260 961 275 961 q 237 956 246 961 q 223 935 228 950 q 216 893 218 919 q 214 825 214 867 z "},"#":{"ha":1017,"x_min":31,"x_max":986,"o":"m 553 268 l 388 268 l 356 0 l 157 0 l 157 31 l 186 268 l 31 268 l 53 461 l 210 461 l 228 607 l 58 607 l 81 800 l 253 800 l 288 1081 l 485 1081 l 485 1050 l 453 800 l 619 800 l 654 1081 l 851 1081 l 851 1050 l 819 800 l 986 800 l 964 607 l 796 607 l 778 461 l 958 461 l 936 268 l 754 268 l 722 0 l 524 0 l 524 31 l 553 268 m 411 461 l 576 461 l 594 607 l 429 607 l 411 461 z "},"¸":{"ha":788,"x_min":254,"x_max":621,"o":"m 349 0 l 481 0 l 481 -54 q 582 -86 543 -54 q 621 -185 621 -118 q 569 -301 621 -260 q 425 -342 517 -342 q 333 -334 376 -342 q 254 -317 289 -326 l 254 -218 q 322 -231 282 -225 q 410 -237 363 -237 q 446 -225 435 -237 q 457 -193 457 -212 q 446 -161 457 -174 q 410 -149 435 -149 l 349 -149 l 349 0 z "},"˚":{"ha":258,"x_min":-40,"x_max":299,"o":"m -40 1007 q -27 1073 -40 1042 q 9 1127 -14 1104 q 63 1163 32 1150 q 129 1176 93 1176 q 195 1163 164 1176 q 249 1127 226 1150 q 285 1073 272 1104 q 299 1007 299 1042 q 285 940 299 971 q 249 887 272 910 q 195 851 226 864 q 129 838 164 838 q 63 851 93 838 q 9 887 32 864 q -27 940 -14 910 q -40 1007 -40 971 m 74 1007 q 90 967 74 983 q 129 951 106 951 q 167 967 151 951 q 183 1007 183 983 q 167 1045 183 1029 q 129 1061 151 1061 q 90 1045 106 1061 q 74 1007 74 1029 z "},"¶":{"ha":1054,"x_min":19,"x_max":1051,"o":"m 726 -222 l 726 833 q 676 842 699 836 q 629 854 653 847 l 629 -222 l 403 -222 l 403 418 q 232 443 304 418 q 113 513 160 468 q 42 622 65 558 q 19 760 19 685 q 42 883 19 822 q 110 992 64 944 q 224 1070 156 1040 q 386 1100 293 1100 q 517 1089 461 1100 q 622 1065 572 1078 q 722 1042 671 1053 q 839 1031 772 1031 q 944 1051 914 1031 q 974 1100 974 1072 l 1051 1100 q 1049 1035 1051 1068 q 1036 972 1046 1003 q 1007 915 1026 942 q 954 867 988 888 l 954 -222 l 726 -222 z "},"þ":{"ha":906,"x_min":8,"x_max":889,"o":"m 8 1081 l 389 1081 l 389 678 q 422 715 401 694 q 469 751 442 735 q 531 780 497 768 q 604 792 564 792 q 819 685 749 792 q 889 386 889 579 q 819 87 889 193 q 604 -19 749 -19 q 531 -8 564 -19 q 469 21 497 4 q 422 58 442 38 q 389 94 401 78 l 389 -81 l 485 -81 l 485 -308 l 8 -308 l 8 -81 l 69 -81 l 69 853 l 8 853 l 8 1081 m 550 456 q 530 524 550 503 q 469 544 510 544 q 409 524 429 544 q 389 456 389 503 l 389 317 q 409 249 389 269 q 469 228 429 228 q 530 249 510 228 q 550 317 550 269 l 550 456 z "},"Þ":{"ha":1058,"x_min":39,"x_max":1003,"o":"m 39 1081 l 594 1081 l 594 853 l 511 853 l 511 790 l 675 790 q 806 779 746 790 q 909 742 865 768 q 978 672 953 715 q 1003 561 1003 628 q 978 445 1003 492 q 909 370 953 399 q 806 330 865 342 q 675 318 746 318 l 511 318 l 511 228 l 644 228 l 644 0 l 39 0 l 39 228 l 122 228 l 122 853 l 39 853 l 39 1081 m 544 460 q 592 474 572 460 q 611 521 611 489 l 611 543 q 592 590 611 575 q 544 604 574 604 l 511 604 l 511 460 l 544 460 z "},"ð":{"ha":842,"x_min":11,"x_max":850,"o":"m 321 963 q 283 999 301 983 q 249 1025 264 1014 l 249 1054 l 407 1153 q 483 1099 447 1126 q 551 1042 519 1072 l 721 1100 l 743 1100 l 743 972 l 650 940 q 850 406 843 710 l 850 386 q 821 208 850 283 q 737 81 792 132 q 604 6 682 31 q 431 -19 526 -19 q 257 6 335 -19 q 124 81 179 31 q 40 208 69 132 q 11 386 11 283 q 40 564 11 488 q 124 691 69 640 q 257 767 179 742 q 431 792 335 792 l 438 792 q 404 857 422 828 l 243 803 l 221 803 l 221 929 l 321 963 m 431 228 q 491 249 471 228 q 511 317 511 269 l 511 456 q 491 524 511 503 q 431 544 471 544 q 370 524 390 544 q 350 456 350 503 l 350 317 q 370 249 350 269 q 431 228 390 228 z "},"·":{"ha":293,"x_min":31,"x_max":247,"o":"m 31 656 l 247 656 l 247 444 l 31 444 l 31 656 z "},"¦":{"ha":354,"x_min":86,"x_max":268,"o":"m 268 289 l 268 -454 l 86 -454 l 86 289 l 268 289 m 86 564 l 86 1306 l 268 1306 l 268 564 l 86 564 z "},"§":{"ha":839,"x_min":31,"x_max":803,"o":"m 106 106 q 262 84 222 88 q 333 81 301 81 q 414 91 394 81 q 433 121 433 101 q 429 138 433 131 q 413 150 425 144 q 381 162 401 156 q 326 176 360 168 q 208 213 263 192 q 115 264 154 233 q 53 335 75 294 q 31 433 31 376 q 119 622 31 554 q 92 740 92 675 q 111 841 92 794 q 174 922 131 888 q 284 975 217 956 q 446 994 351 994 q 610 981 540 994 q 719 953 679 967 l 719 765 q 617 778 669 772 q 504 785 564 785 q 422 776 446 785 q 397 747 397 767 q 401 731 397 738 q 417 719 406 724 q 450 708 429 714 q 503 697 471 703 q 724 610 644 669 q 803 444 803 551 q 782 333 803 386 q 721 246 761 281 q 742 136 742 200 q 657 -59 742 13 q 392 -131 572 -131 q 220 -117 293 -131 q 106 -87 147 -103 l 106 106 m 553 415 q 531 456 553 439 q 439 488 510 472 q 342 500 374 500 q 300 489 310 500 q 290 458 290 478 q 316 415 290 431 q 419 386 342 400 q 504 376 472 376 q 544 387 536 376 q 553 415 553 397 z "},"ß":{"ha":982,"x_min":25,"x_max":965,"o":"m 475 217 l 521 204 q 561 195 540 199 q 599 192 582 192 q 646 201 635 192 q 657 228 657 211 q 639 262 657 247 q 585 297 621 276 q 481 382 514 338 q 449 493 449 426 q 465 576 449 536 q 501 653 482 617 q 538 724 521 690 q 554 788 554 757 q 538 838 554 822 q 479 853 521 853 q 422 835 438 853 q 406 771 406 818 l 406 0 l 25 0 l 25 228 l 86 228 l 86 544 l 25 544 l 25 772 l 89 772 q 113 926 89 864 q 185 1027 136 989 q 310 1083 233 1065 q 490 1100 386 1100 q 639 1086 571 1100 q 756 1042 707 1072 q 831 963 804 1011 q 858 846 858 914 q 840 743 858 785 q 799 670 821 701 q 759 614 778 639 q 740 563 740 589 q 743 542 740 551 q 756 524 746 533 q 783 503 765 515 q 829 475 800 492 q 881 438 856 458 q 924 390 906 418 q 954 323 943 361 q 965 233 965 285 q 948 133 965 179 q 896 52 931 86 q 808 -1 861 18 q 682 -19 754 -19 q 560 -6 613 -19 q 475 24 508 8 l 475 217 z "},"‚":{"ha":292,"x_min":42,"x_max":236,"o":"m 42 178 l 236 178 l 236 0 l 143 -142 l 50 -142 l 110 0 l 42 0 l 42 178 z "},"„":{"ha":536,"x_min":42,"x_max":481,"o":"m 42 178 l 236 178 l 236 0 l 143 -142 l 50 -142 l 110 0 l 42 0 l 42 178 m 286 178 l 481 178 l 481 0 l 388 -142 l 294 -142 l 354 0 l 286 0 l 286 178 z "},"¤":{"ha":811,"x_min":11,"x_max":800,"o":"m 11 222 l 122 333 q 113 391 115 361 q 110 454 110 421 q 122 572 110 519 l 11 685 l 161 835 l 251 743 q 406 772 314 772 q 560 743 497 772 l 651 835 l 800 685 l 689 574 q 703 454 703 526 q 689 332 703 386 l 800 222 l 651 74 l 558 165 q 406 136 497 136 q 253 165 313 136 l 161 74 l 11 222 m 308 454 q 331 341 308 375 q 406 307 353 307 q 481 341 458 307 q 504 454 504 375 q 481 567 504 533 q 406 601 458 601 q 331 567 353 601 q 308 454 308 533 z "},"¹":{"ha":363,"x_min":14,"x_max":346,"o":"m 14 1075 l 139 1126 l 289 1126 l 289 744 l 346 744 l 346 596 l 28 596 l 28 744 l 93 744 l 93 981 l 14 981 l 14 1075 z "},"²":{"ha":436,"x_min":33,"x_max":422,"o":"m 33 740 q 92 790 61 763 q 147 844 122 817 q 189 898 172 871 q 206 949 206 925 q 192 981 206 972 q 156 990 179 990 q 109 986 138 990 q 43 972 81 982 l 43 1106 q 118 1131 69 1119 q 222 1143 167 1143 q 359 1102 310 1143 q 408 993 408 1061 q 368 862 408 925 q 257 740 328 799 l 422 740 l 422 596 l 33 596 l 33 740 z "},"³":{"ha":367,"x_min":25,"x_max":364,"o":"m 75 919 q 122 922 104 919 q 150 930 140 925 q 163 942 160 935 q 165 958 165 950 q 156 981 165 972 q 117 990 147 990 q 75 989 97 990 q 29 985 53 988 l 29 1114 q 90 1133 50 1124 q 178 1143 131 1143 q 303 1104 254 1143 q 353 1003 353 1065 q 286 871 353 922 q 343 817 322 849 q 364 742 364 786 q 349 675 364 704 q 310 626 335 646 q 251 595 285 606 q 178 585 217 585 q 25 610 96 585 l 25 749 q 117 740 71 740 q 157 751 147 740 q 167 779 167 761 q 164 797 167 789 q 151 810 161 804 q 124 818 142 815 q 75 821 106 821 l 75 919 z "},"¼":{"ha":1115,"x_min":-4,"x_max":1107,"o":"m 733 1081 l 931 1081 l 931 1036 l 286 0 l 88 0 l 88 44 l 733 1081 m 800 251 l 876 251 l 876 364 l 1053 364 l 1053 251 l 1107 251 l 1107 118 l 1053 118 l 1053 0 l 876 0 l 876 118 l 638 118 l 638 232 l 704 529 l 860 529 l 800 251 m -4 1029 l 121 1081 l 271 1081 l 271 699 l 328 699 l 328 550 l 10 550 l 10 699 l 75 699 l 75 935 l -4 935 l -4 1029 z "},"½":{"ha":1115,"x_min":-4,"x_max":1072,"o":"m 733 1081 l 931 1081 l 931 1036 l 286 0 l 88 0 l 88 44 l 733 1081 m 683 144 q 742 194 711 167 q 797 248 772 221 q 839 302 822 275 q 856 353 856 329 q 842 385 856 376 q 806 394 829 394 q 768 391 788 394 q 732 385 749 388 l 693 376 l 693 510 q 762 535 718 522 q 872 547 806 547 q 1009 506 960 547 q 1058 397 1058 465 q 1018 266 1058 329 q 907 144 978 203 l 1072 144 l 1072 0 l 683 0 l 683 144 m -4 1029 l 121 1081 l 271 1081 l 271 699 l 328 699 l 328 550 l 10 550 l 10 699 l 75 699 l 75 935 l -4 935 l -4 1029 z "},"¾":{"ha":1115,"x_min":6,"x_max":1107,"o":"m 733 1081 l 931 1081 l 931 1036 l 286 0 l 88 0 l 88 44 l 733 1081 m 800 251 l 876 251 l 876 364 l 1053 364 l 1053 251 l 1107 251 l 1107 118 l 1053 118 l 1053 0 l 876 0 l 876 118 l 638 118 l 638 232 l 704 529 l 860 529 l 800 251 m 56 876 q 103 879 85 876 q 131 887 121 882 q 143 899 140 892 q 146 915 146 907 q 138 938 146 929 q 97 947 129 947 q 62 947 78 947 q 35 944 46 946 l 10 942 l 10 1071 q 67 1090 29 1081 q 158 1100 104 1100 q 285 1061 238 1100 q 333 960 333 1022 q 267 828 333 879 q 324 774 303 806 q 344 699 344 743 q 330 632 344 661 q 290 583 315 603 q 231 552 265 563 q 158 542 197 542 q 47 554 86 542 l 6 567 l 6 706 l 32 701 q 97 697 57 697 q 138 708 129 697 q 147 736 147 718 q 144 753 147 746 q 132 767 142 761 q 104 775 122 772 q 56 778 86 778 l 56 876 z "},"‹":{"ha":415,"x_min":58,"x_max":401,"o":"m 292 394 l 292 374 l 401 85 l 219 85 l 58 351 l 58 417 l 219 683 l 401 683 l 292 394 z "},"›":{"ha":415,"x_min":14,"x_max":357,"o":"m 14 683 l 196 683 l 357 417 l 357 351 l 196 85 l 14 85 l 124 374 l 124 394 l 14 683 z "},"«":{"ha":722,"x_min":58,"x_max":708,"o":"m 292 394 l 292 374 l 401 85 l 219 85 l 58 351 l 58 417 l 219 683 l 401 683 l 292 394 m 599 394 l 599 374 l 708 85 l 526 85 l 365 351 l 365 417 l 526 683 l 708 683 l 599 394 z "},"»":{"ha":722,"x_min":14,"x_max":664,"o":"m 321 683 l 503 683 l 664 417 l 664 351 l 503 85 l 321 85 l 431 374 l 431 394 l 321 683 m 14 683 l 196 683 l 357 417 l 357 351 l 196 85 l 14 85 l 124 374 l 124 394 l 14 683 z "},"A":{"ha":1119,"x_min":25,"x_max":1111,"o":"m 567 228 l 650 228 l 626 339 l 439 339 l 417 228 l 500 228 l 500 0 l 25 0 l 25 228 l 81 228 l 315 1081 l 821 1081 l 1056 228 l 1111 228 l 1111 0 l 567 0 l 567 228 m 469 486 l 597 486 l 540 763 l 526 763 l 469 486 z "}," ":{"ha":417,"x_min":0,"x_max":0,"o":""},"æ":{"ha":1314,"x_min":11,"x_max":1297,"o":"m 928 792 q 1106 760 1035 792 q 1219 679 1176 729 q 1280 565 1263 629 q 1297 436 1297 501 l 1297 336 l 847 336 l 847 328 q 876 253 847 278 q 979 228 904 228 q 1147 242 1071 228 q 1274 272 1224 256 l 1274 50 q 1216 26 1249 38 q 1142 3 1183 14 q 1047 -13 1100 -7 q 928 -19 994 -19 q 596 122 701 -19 q 546 75 576 100 q 474 29 515 50 q 382 -6 433 8 q 268 -19 331 -19 q 79 36 147 -19 q 11 197 11 92 q 131 395 11 326 q 511 464 251 464 q 486 524 511 503 q 383 544 461 544 q 216 532 300 544 q 61 504 132 519 l 61 743 q 217 775 125 758 q 446 792 310 792 q 586 776 525 792 q 693 731 647 760 q 928 792 796 792 m 928 544 q 867 524 888 544 q 847 456 847 503 l 847 447 l 1008 447 l 1008 456 q 988 524 1008 503 q 928 544 968 544 m 511 325 q 393 315 436 325 q 350 272 350 306 q 426 228 350 228 q 511 317 511 228 l 511 325 z "},"œ":{"ha":1317,"x_min":11,"x_max":1300,"o":"m 931 792 q 1108 760 1038 792 q 1222 679 1179 729 q 1283 565 1265 629 q 1300 436 1300 501 l 1300 336 l 850 336 l 850 328 q 878 253 850 278 q 982 228 907 228 q 1150 242 1074 228 q 1276 272 1226 256 l 1276 50 q 1219 26 1251 38 q 1144 3 1186 14 q 1050 -13 1103 -7 q 931 -19 997 -19 q 757 6 835 -19 q 681 39 715 18 q 604 6 646 18 q 431 -19 526 -19 q 257 6 335 -19 q 124 81 179 31 q 40 208 69 132 q 11 386 11 283 q 40 564 11 488 q 124 691 69 640 q 257 767 179 742 q 431 792 335 792 q 604 767 526 792 q 679 732 644 753 q 757 767 715 753 q 931 792 835 792 m 431 228 q 491 249 471 228 q 511 317 511 269 l 511 456 q 491 524 511 503 q 431 544 471 544 q 370 524 390 544 q 350 456 350 503 l 350 317 q 370 249 350 269 q 431 228 390 228 m 931 544 q 870 524 890 544 q 850 456 850 503 l 850 447 l 1011 447 l 1011 456 q 991 524 1011 503 q 931 544 971 544 z "},"Æ":{"ha":1564,"x_min":-3,"x_max":1536,"o":"m 1225 853 l 1057 853 l 1057 633 l 1179 633 l 1179 475 l 1057 475 l 1057 228 l 1225 228 l 1225 447 l 1536 447 l 1536 0 l 599 0 l 599 228 l 668 228 l 668 339 l 478 339 l 438 228 l 521 228 l 521 0 l -3 0 l -3 228 l 53 228 l 413 1081 l 1536 1081 l 1536 661 l 1225 661 l 1225 853 m 536 500 l 668 500 l 668 821 l 654 821 l 536 500 z "},"Œ":{"ha":1549,"x_min":28,"x_max":1521,"o":"m 1210 853 l 1042 853 l 1042 633 l 1164 633 l 1164 475 l 1042 475 l 1042 228 l 1210 228 l 1210 447 l 1521 447 l 1521 0 l 740 0 q 558 -19 651 -19 q 339 11 438 -19 q 172 108 240 42 q 65 281 103 175 q 28 540 28 388 q 65 799 28 692 q 172 972 103 906 q 339 1069 240 1039 q 558 1100 438 1100 q 739 1081 650 1100 l 1521 1081 l 1521 661 l 1210 661 l 1210 853 m 558 228 q 629 252 606 228 q 653 331 653 276 l 653 750 q 629 828 653 804 q 558 853 606 853 q 488 828 511 853 q 464 750 464 804 l 464 331 q 488 252 464 276 q 558 228 511 228 z "},"Ð":{"ha":1147,"x_min":24,"x_max":1122,"o":"m 39 1081 l 617 1081 q 816 1053 724 1081 q 976 963 908 1026 q 1083 795 1044 899 q 1122 540 1122 692 q 1083 285 1122 388 q 976 118 1044 182 q 816 27 908 54 q 617 0 724 0 l 39 0 l 39 228 l 122 228 l 122 432 l 24 432 l 24 660 l 122 660 l 122 851 l 39 851 l 39 1081 m 592 228 q 663 252 639 228 q 686 331 686 276 l 686 750 q 661 828 686 804 q 592 853 636 853 l 511 853 l 511 660 l 596 660 l 596 432 l 511 432 l 511 228 l 592 228 z "},"ĳ":{"ha":907,"x_min":25,"x_max":871,"o":"m 406 228 l 467 228 l 467 0 l 25 0 l 25 228 l 86 228 l 86 544 l 25 544 l 25 772 l 406 772 l 406 228 m 119 1081 l 375 1081 l 375 849 l 119 849 l 119 1081 m 458 772 l 871 772 l 871 47 q 791 -237 871 -146 q 547 -328 711 -328 q 433 -319 489 -328 q 328 -297 378 -311 l 328 -71 q 403 -78 371 -76 q 458 -81 436 -81 q 527 -57 503 -81 q 551 19 551 -33 l 551 544 l 458 544 l 458 772 m 585 1081 l 840 1081 l 840 849 l 585 849 l 585 1081 z "},"Ĳ":{"ha":1297,"x_min":33,"x_max":1294,"o":"m 736 228 q 798 259 774 228 q 822 358 822 290 l 822 853 l 682 853 l 682 1081 l 1294 1081 l 1294 853 l 1211 853 l 1211 386 q 1179 199 1211 276 q 1092 74 1147 122 q 965 3 1038 25 q 811 -19 892 -19 q 689 -11 735 -19 q 619 10 643 -3 l 619 243 l 657 235 q 694 229 674 231 q 736 228 714 228 m 33 1081 l 589 1081 l 589 853 l 506 853 l 506 228 l 589 228 l 589 0 l 33 0 l 33 228 l 117 228 l 117 853 l 33 853 l 33 1081 z "},"ø":{"ha":861,"x_min":11,"x_max":850,"o":"m 850 386 q 821 208 850 283 q 737 81 792 132 q 604 6 682 31 q 431 -19 526 -19 l 407 -19 l 382 -168 l 303 -168 l 303 -132 l 322 -10 q 257 6 289 -4 q 124 81 179 31 q 40 208 69 132 q 11 386 11 283 q 40 564 11 488 q 124 691 69 640 q 257 767 179 742 q 431 792 335 792 l 456 792 l 481 936 l 560 936 l 560 900 l 540 782 q 604 767 574 776 q 737 691 682 742 q 821 564 792 640 q 850 386 850 488 m 369 524 q 350 456 350 503 l 350 317 q 367 251 350 274 l 415 543 q 369 524 386 540 m 490 249 q 511 317 511 269 l 511 456 q 496 518 511 496 l 447 228 q 490 249 475 232 z "},"Ø":{"ha":1108,"x_min":28,"x_max":1089,"o":"m 1089 540 q 1051 281 1089 388 q 945 108 1014 175 q 778 11 876 42 q 558 -19 679 -19 q 514 -18 536 -19 l 490 -158 l 392 -158 l 392 -114 l 410 -6 q 339 11 372 0 q 172 108 240 42 q 65 281 103 175 q 28 540 28 388 q 65 799 28 692 q 172 972 103 906 q 339 1069 240 1039 q 558 1100 438 1100 q 593 1099 576 1100 l 614 1221 l 713 1221 l 713 1176 l 697 1089 q 778 1069 739 1081 q 945 972 876 1039 q 1051 799 1014 906 q 1089 540 1089 692 m 558 228 q 629 252 606 228 q 653 331 653 276 l 653 750 q 649 790 653 774 l 554 228 l 558 228 m 488 828 q 464 750 464 804 l 464 331 l 464 319 l 553 853 q 488 828 510 851 z "},"̇":{"ha":464,"x_min":93,"x_max":349,"o":"m 93 1081 l 349 1081 l 349 849 l 93 849 l 93 1081 z "},"ȷ":{"ha":454,"x_min":-125,"x_max":418,"o":"m 6 772 l 418 772 l 418 47 q 338 -237 418 -146 q 94 -328 258 -328 q -19 -319 38 -328 q -125 -297 -75 -311 l -125 -71 q -48 -78 -82 -76 q 6 -81 -14 -81 q 74 -57 50 -81 q 99 19 99 -33 l 99 544 l 6 544 l 6 772 z "},"ı":{"ha":481,"x_min":25,"x_max":467,"o":"m 406 228 l 467 228 l 467 0 l 25 0 l 25 228 l 86 228 l 86 544 l 25 544 l 25 772 l 406 772 l 406 228 z "},"á":{"ha":906,"x_min":11,"x_max":892,"o":"m 511 94 q 478 58 499 78 q 427 21 457 38 q 358 -8 397 4 q 268 -19 318 -19 q 79 36 147 -19 q 11 197 11 92 q 134 397 11 329 q 511 464 257 464 q 486 524 511 503 q 383 544 461 544 q 216 532 300 544 q 61 504 132 519 l 61 743 q 235 777 132 763 q 446 792 338 792 q 631 771 557 792 q 750 708 706 750 q 813 602 794 665 q 831 456 831 539 l 831 228 l 892 228 l 892 0 l 511 0 l 511 94 m 511 325 q 388 313 425 325 q 350 272 350 301 q 426 228 350 228 q 511 317 511 228 l 511 325 m 508 849 l 286 849 l 286 869 l 438 1081 l 735 1081 l 735 1043 l 508 849 z "},"à":{"ha":906,"x_min":11,"x_max":892,"o":"m 511 94 q 478 58 499 78 q 427 21 457 38 q 358 -8 397 4 q 268 -19 318 -19 q 79 36 147 -19 q 11 197 11 92 q 134 397 11 329 q 511 464 257 464 q 486 524 511 503 q 383 544 461 544 q 216 532 300 544 q 61 504 132 519 l 61 743 q 235 777 132 763 q 446 792 338 792 q 631 771 557 792 q 750 708 706 750 q 813 602 794 665 q 831 456 831 539 l 831 228 l 892 228 l 892 0 l 511 0 l 511 94 m 511 325 q 388 313 425 325 q 350 272 350 301 q 426 228 350 228 q 511 317 511 228 l 511 325 m 139 1043 l 139 1081 l 436 1081 l 588 869 l 588 849 l 365 849 l 139 1043 z "},"ä":{"ha":906,"x_min":11,"x_max":892,"o":"m 511 94 q 478 58 499 78 q 427 21 457 38 q 358 -8 397 4 q 268 -19 318 -19 q 79 36 147 -19 q 11 197 11 92 q 134 397 11 329 q 511 464 257 464 q 486 524 511 503 q 383 544 461 544 q 216 532 300 544 q 61 504 132 519 l 61 743 q 235 777 132 763 q 446 792 338 792 q 631 771 557 792 q 750 708 706 750 q 813 602 794 665 q 831 456 831 539 l 831 228 l 892 228 l 892 0 l 511 0 l 511 94 m 511 325 q 388 313 425 325 q 350 272 350 301 q 426 228 350 228 q 511 317 511 228 l 511 325 m 161 1081 l 393 1081 l 393 849 l 161 849 l 161 1081 m 517 1081 l 747 1081 l 747 849 l 517 849 l 517 1081 z "},"â":{"ha":906,"x_min":11,"x_max":892,"o":"m 511 94 q 478 58 499 78 q 427 21 457 38 q 358 -8 397 4 q 268 -19 318 -19 q 79 36 147 -19 q 11 197 11 92 q 134 397 11 329 q 511 464 257 464 q 486 524 511 503 q 383 544 461 544 q 216 532 300 544 q 61 504 132 519 l 61 743 q 235 777 132 763 q 446 792 338 792 q 631 771 557 792 q 750 708 706 750 q 813 602 794 665 q 831 456 831 539 l 831 228 l 892 228 l 892 0 l 511 0 l 511 94 m 511 325 q 388 313 425 325 q 350 272 350 301 q 426 228 350 228 q 511 317 511 228 l 511 325 m 458 939 l 446 939 l 360 849 l 153 849 l 153 869 l 315 1081 l 589 1081 l 751 869 l 751 849 l 544 849 l 458 939 z "},"ã":{"ha":906,"x_min":11,"x_max":892,"o":"m 511 94 q 478 58 499 78 q 427 21 457 38 q 358 -8 397 4 q 268 -19 318 -19 q 79 36 147 -19 q 11 197 11 92 q 134 397 11 329 q 511 464 257 464 q 486 524 511 503 q 383 544 461 544 q 216 532 300 544 q 61 504 132 519 l 61 743 q 235 777 132 763 q 446 792 338 792 q 631 771 557 792 q 750 708 706 750 q 813 602 794 665 q 831 456 831 539 l 831 228 l 892 228 l 892 0 l 511 0 l 511 94 m 511 325 q 388 313 425 325 q 350 272 350 301 q 426 228 350 228 q 511 317 511 228 l 511 325 m 160 864 q 167 963 160 918 q 192 1038 174 1007 q 244 1085 211 1068 q 326 1101 276 1101 q 403 1092 365 1101 q 476 1069 440 1082 q 547 1047 513 1057 q 618 1038 582 1038 q 661 1054 650 1038 q 672 1086 672 1071 l 750 1086 q 744 988 750 1032 q 722 913 739 944 q 674 865 706 882 q 593 849 643 849 q 520 859 557 849 q 445 882 483 869 q 369 905 407 894 q 294 915 331 915 q 248 897 263 915 q 233 864 233 879 l 160 864 z "},"å":{"ha":906,"x_min":11,"x_max":892,"o":"m 511 94 q 478 58 499 78 q 427 21 457 38 q 358 -8 397 4 q 268 -19 318 -19 q 79 36 147 -19 q 11 197 11 92 q 134 397 11 329 q 511 464 257 464 q 486 524 511 503 q 383 544 461 544 q 216 532 300 544 q 61 504 132 519 l 61 743 q 235 777 132 763 q 446 792 338 792 q 631 771 557 792 q 750 708 706 750 q 813 602 794 665 q 831 456 831 539 l 831 228 l 892 228 l 892 0 l 511 0 l 511 94 m 511 325 q 388 313 425 325 q 350 272 350 301 q 426 228 350 228 q 511 317 511 228 l 511 325 m 271 1007 q 284 1073 271 1042 q 320 1127 297 1104 q 374 1163 343 1150 q 440 1176 404 1176 q 506 1163 475 1176 q 560 1127 538 1150 q 597 1073 583 1104 q 610 1007 610 1042 q 597 940 610 971 q 560 887 583 910 q 506 851 538 864 q 440 838 475 838 q 374 851 404 838 q 320 887 343 864 q 284 940 297 910 q 271 1007 271 971 m 385 1007 q 401 967 385 983 q 440 951 417 951 q 478 967 463 951 q 494 1007 494 983 q 478 1045 494 1029 q 440 1061 463 1061 q 401 1045 417 1061 q 385 1007 385 1029 z "},"é":{"ha":817,"x_min":11,"x_max":800,"o":"m 431 792 q 608 760 538 792 q 722 679 679 729 q 783 565 765 629 q 800 436 800 501 l 800 336 l 350 336 l 350 328 q 378 253 350 278 q 482 228 407 228 q 650 242 574 228 q 776 272 726 256 l 776 50 q 719 26 751 38 q 644 3 686 14 q 550 -13 603 -7 q 431 -19 497 -19 q 257 6 335 -19 q 124 81 179 31 q 40 208 69 132 q 11 386 11 283 q 40 564 11 488 q 124 691 69 640 q 257 767 179 742 q 431 792 335 792 m 431 544 q 370 524 390 544 q 350 456 350 503 l 350 447 l 511 447 l 511 456 q 491 524 511 503 q 431 544 471 544 m 492 849 l 269 849 l 269 869 l 421 1081 l 718 1081 l 718 1043 l 492 849 z "},"è":{"ha":817,"x_min":11,"x_max":800,"o":"m 431 792 q 608 760 538 792 q 722 679 679 729 q 783 565 765 629 q 800 436 800 501 l 800 336 l 350 336 l 350 328 q 378 253 350 278 q 482 228 407 228 q 650 242 574 228 q 776 272 726 256 l 776 50 q 719 26 751 38 q 644 3 686 14 q 550 -13 603 -7 q 431 -19 497 -19 q 257 6 335 -19 q 124 81 179 31 q 40 208 69 132 q 11 386 11 283 q 40 564 11 488 q 124 691 69 640 q 257 767 179 742 q 431 792 335 792 m 431 544 q 370 524 390 544 q 350 456 350 503 l 350 447 l 511 447 l 511 456 q 491 524 511 503 q 431 544 471 544 m 122 1043 l 122 1081 l 419 1081 l 571 869 l 571 849 l 349 849 l 122 1043 z "},"ë":{"ha":817,"x_min":11,"x_max":800,"o":"m 431 792 q 608 760 538 792 q 722 679 679 729 q 783 565 765 629 q 800 436 800 501 l 800 336 l 350 336 l 350 328 q 378 253 350 278 q 482 228 407 228 q 650 242 574 228 q 776 272 726 256 l 776 50 q 719 26 751 38 q 644 3 686 14 q 550 -13 603 -7 q 431 -19 497 -19 q 257 6 335 -19 q 124 81 179 31 q 40 208 69 132 q 11 386 11 283 q 40 564 11 488 q 124 691 69 640 q 257 767 179 742 q 431 792 335 792 m 431 544 q 370 524 390 544 q 350 456 350 503 l 350 447 l 511 447 l 511 456 q 491 524 511 503 q 431 544 471 544 m 144 1081 l 376 1081 l 376 849 l 144 849 l 144 1081 m 500 1081 l 731 1081 l 731 849 l 500 849 l 500 1081 z "},"ê":{"ha":817,"x_min":11,"x_max":800,"o":"m 431 792 q 608 760 538 792 q 722 679 679 729 q 783 565 765 629 q 800 436 800 501 l 800 336 l 350 336 l 350 328 q 378 253 350 278 q 482 228 407 228 q 650 242 574 228 q 776 272 726 256 l 776 50 q 719 26 751 38 q 644 3 686 14 q 550 -13 603 -7 q 431 -19 497 -19 q 257 6 335 -19 q 124 81 179 31 q 40 208 69 132 q 11 386 11 283 q 40 564 11 488 q 124 691 69 640 q 257 767 179 742 q 431 792 335 792 m 431 544 q 370 524 390 544 q 350 456 350 503 l 350 447 l 511 447 l 511 456 q 491 524 511 503 q 431 544 471 544 m 442 939 l 429 939 l 343 849 l 136 849 l 136 869 l 299 1081 l 572 1081 l 735 869 l 735 849 l 528 849 l 442 939 z "},"ì":{"ha":481,"x_min":-71,"x_max":467,"o":"m 406 228 l 467 228 l 467 0 l 25 0 l 25 228 l 86 228 l 86 544 l 25 544 l 25 772 l 406 772 l 406 228 m -71 1043 l -71 1081 l 226 1081 l 378 869 l 378 849 l 156 849 l -71 1043 z "},"ï":{"ha":481,"x_min":-49,"x_max":538,"o":"m 406 228 l 467 228 l 467 0 l 25 0 l 25 228 l 86 228 l 86 544 l 25 544 l 25 772 l 406 772 l 406 228 m -49 1081 l 183 1081 l 183 849 l -49 849 l -49 1081 m 307 1081 l 538 1081 l 538 849 l 307 849 l 307 1081 z "},"î":{"ha":481,"x_min":-57,"x_max":542,"o":"m 406 228 l 467 228 l 467 0 l 25 0 l 25 228 l 86 228 l 86 544 l 25 544 l 25 772 l 406 772 l 406 228 m 249 939 l 236 939 l 150 849 l -57 849 l -57 869 l 106 1081 l 379 1081 l 542 869 l 542 849 l 335 849 l 249 939 z "},"ĩ":{"ha":481,"x_min":-50,"x_max":540,"o":"m 406 228 l 467 228 l 467 0 l 25 0 l 25 228 l 86 228 l 86 544 l 25 544 l 25 772 l 406 772 l 406 228 m -50 864 q -43 963 -50 918 q -17 1038 -36 1007 q 34 1085 1 1068 q 117 1101 67 1101 q 193 1092 156 1101 q 267 1069 231 1082 q 338 1047 303 1057 q 408 1038 372 1038 q 451 1054 440 1038 q 463 1086 463 1071 l 540 1086 q 535 988 540 1032 q 513 913 529 944 q 465 865 496 882 q 383 849 433 849 q 310 859 347 849 q 235 882 274 869 q 159 905 197 894 q 85 915 121 915 q 38 897 53 915 q 24 864 24 879 l -50 864 z "},"í":{"ha":481,"x_min":25,"x_max":524,"o":"m 406 228 l 467 228 l 467 0 l 25 0 l 25 228 l 86 228 l 86 544 l 25 544 l 25 772 l 406 772 l 406 228 m 297 849 l 75 849 l 75 869 l 226 1081 l 524 1081 l 524 1043 l 297 849 z "},"ĵ":{"ha":454,"x_min":-125,"x_max":550,"o":"m 6 772 l 418 772 l 418 47 q 338 -237 418 -146 q 94 -328 258 -328 q -19 -319 38 -328 q -125 -297 -75 -311 l -125 -71 q -48 -78 -82 -76 q 6 -81 -14 -81 q 74 -57 50 -81 q 99 19 99 -33 l 99 544 l 6 544 l 6 772 m 257 939 l 244 939 l 158 849 l -49 849 l -49 869 l 114 1081 l 388 1081 l 550 869 l 550 849 l 343 849 l 257 939 z "},"ń":{"ha":956,"x_min":22,"x_max":944,"o":"m 503 228 l 564 228 l 564 456 q 544 524 564 503 q 483 544 524 544 q 423 524 443 544 q 403 456 403 503 l 403 228 l 464 228 l 464 0 l 22 0 l 22 228 l 83 228 l 83 544 l 22 544 l 22 772 l 403 772 l 403 678 q 440 715 419 694 q 490 751 461 735 q 554 780 518 768 q 638 792 590 792 q 817 710 751 792 q 883 456 883 629 l 883 228 l 944 228 l 944 0 l 503 0 l 503 228 m 572 849 l 350 849 l 350 869 l 501 1081 l 799 1081 l 799 1043 l 572 849 z "},"ñ":{"ha":956,"x_min":22,"x_max":944,"o":"m 503 228 l 564 228 l 564 456 q 544 524 564 503 q 483 544 524 544 q 423 524 443 544 q 403 456 403 503 l 403 228 l 464 228 l 464 0 l 22 0 l 22 228 l 83 228 l 83 544 l 22 544 l 22 772 l 403 772 l 403 678 q 440 715 419 694 q 490 751 461 735 q 554 780 518 768 q 638 792 590 792 q 817 710 751 792 q 883 456 883 629 l 883 228 l 944 228 l 944 0 l 503 0 l 503 228 m 224 864 q 231 963 224 918 q 256 1038 238 1007 q 308 1085 275 1068 q 390 1101 340 1101 q 467 1092 429 1101 q 540 1069 504 1082 q 611 1047 576 1057 q 682 1038 646 1038 q 725 1054 714 1038 q 736 1086 736 1071 l 814 1086 q 808 988 814 1032 q 786 913 803 944 q 738 865 769 882 q 657 849 707 849 q 584 859 621 849 q 509 882 547 869 q 433 905 471 894 q 358 915 394 915 q 312 897 326 915 q 297 864 297 879 l 224 864 z "},"ó":{"ha":861,"x_min":11,"x_max":850,"o":"m 850 386 q 821 208 850 283 q 737 81 792 132 q 604 6 682 31 q 431 -19 526 -19 q 257 6 335 -19 q 124 81 179 31 q 40 208 69 132 q 11 386 11 283 q 40 564 11 488 q 124 691 69 640 q 257 767 179 742 q 431 792 335 792 q 604 767 526 792 q 737 691 682 742 q 821 564 792 640 q 850 386 850 488 m 431 228 q 491 249 471 228 q 511 317 511 269 l 511 456 q 491 524 511 503 q 431 544 471 544 q 370 524 390 544 q 350 456 350 503 l 350 317 q 370 249 350 269 q 431 228 390 228 m 499 849 l 276 849 l 276 869 l 428 1081 l 725 1081 l 725 1043 l 499 849 z "},"ò":{"ha":861,"x_min":11,"x_max":850,"o":"m 850 386 q 821 208 850 283 q 737 81 792 132 q 604 6 682 31 q 431 -19 526 -19 q 257 6 335 -19 q 124 81 179 31 q 40 208 69 132 q 11 386 11 283 q 40 564 11 488 q 124 691 69 640 q 257 767 179 742 q 431 792 335 792 q 604 767 526 792 q 737 691 682 742 q 821 564 792 640 q 850 386 850 488 m 431 228 q 491 249 471 228 q 511 317 511 269 l 511 456 q 491 524 511 503 q 431 544 471 544 q 370 524 390 544 q 350 456 350 503 l 350 317 q 370 249 350 269 q 431 228 390 228 m 129 1043 l 129 1081 l 426 1081 l 578 869 l 578 849 l 356 849 l 129 1043 z "},"ö":{"ha":861,"x_min":11,"x_max":850,"o":"m 850 386 q 821 208 850 283 q 737 81 792 132 q 604 6 682 31 q 431 -19 526 -19 q 257 6 335 -19 q 124 81 179 31 q 40 208 69 132 q 11 386 11 283 q 40 564 11 488 q 124 691 69 640 q 257 767 179 742 q 431 792 335 792 q 604 767 526 792 q 737 691 682 742 q 821 564 792 640 q 850 386 850 488 m 431 228 q 491 249 471 228 q 511 317 511 269 l 511 456 q 491 524 511 503 q 431 544 471 544 q 370 524 390 544 q 350 456 350 503 l 350 317 q 370 249 350 269 q 431 228 390 228 m 151 1081 l 383 1081 l 383 849 l 151 849 l 151 1081 m 507 1081 l 738 1081 l 738 849 l 507 849 l 507 1081 z "},"ô":{"ha":861,"x_min":11,"x_max":850,"o":"m 850 386 q 821 208 850 283 q 737 81 792 132 q 604 6 682 31 q 431 -19 526 -19 q 257 6 335 -19 q 124 81 179 31 q 40 208 69 132 q 11 386 11 283 q 40 564 11 488 q 124 691 69 640 q 257 767 179 742 q 431 792 335 792 q 604 767 526 792 q 737 691 682 742 q 821 564 792 640 q 850 386 850 488 m 431 228 q 491 249 471 228 q 511 317 511 269 l 511 456 q 491 524 511 503 q 431 544 471 544 q 370 524 390 544 q 350 456 350 503 l 350 317 q 370 249 350 269 q 431 228 390 228 m 449 939 l 436 939 l 350 849 l 143 849 l 143 869 l 306 1081 l 579 1081 l 742 869 l 742 849 l 535 849 l 449 939 z "},"õ":{"ha":861,"x_min":11,"x_max":850,"o":"m 850 386 q 821 208 850 283 q 737 81 792 132 q 604 6 682 31 q 431 -19 526 -19 q 257 6 335 -19 q 124 81 179 31 q 40 208 69 132 q 11 386 11 283 q 40 564 11 488 q 124 691 69 640 q 257 767 179 742 q 431 792 335 792 q 604 767 526 792 q 737 691 682 742 q 821 564 792 640 q 850 386 850 488 m 431 228 q 491 249 471 228 q 511 317 511 269 l 511 456 q 491 524 511 503 q 431 544 471 544 q 370 524 390 544 q 350 456 350 503 l 350 317 q 370 249 350 269 q 431 228 390 228 m 150 864 q 157 963 150 918 q 183 1038 164 1007 q 234 1085 201 1068 q 317 1101 267 1101 q 393 1092 356 1101 q 467 1069 431 1082 q 538 1047 503 1057 q 608 1038 572 1038 q 651 1054 640 1038 q 663 1086 663 1071 l 740 1086 q 735 988 740 1032 q 713 913 729 944 q 665 865 696 882 q 583 849 633 849 q 510 859 547 849 q 435 882 474 869 q 359 905 397 894 q 285 915 321 915 q 238 897 253 915 q 224 864 224 879 l 150 864 z "},"ř":{"ha":724,"x_min":25,"x_max":710,"o":"m 25 772 l 406 772 l 406 681 l 419 676 q 444 717 429 696 q 482 754 460 738 q 533 781 504 771 q 597 792 561 792 q 654 788 626 792 q 710 772 682 783 l 710 532 q 633 542 664 540 q 581 544 601 544 q 447 503 489 544 q 406 363 406 463 l 406 228 l 532 228 l 532 0 l 25 0 l 25 228 l 86 228 l 86 544 l 25 544 l 25 772 m 481 1081 l 688 1081 l 688 1060 l 525 849 l 251 849 l 89 1060 l 89 1081 l 296 1081 l 382 990 l 394 990 l 481 1081 z "},"ú":{"ha":939,"x_min":3,"x_max":925,"o":"m 383 317 q 403 249 383 269 q 464 228 424 228 q 524 249 504 228 q 544 317 544 269 l 544 544 l 469 544 l 469 772 l 864 772 l 864 228 l 925 228 l 925 0 l 544 0 l 544 94 q 506 57 528 76 q 457 21 485 38 q 393 -8 429 4 q 310 -19 357 -19 q 130 62 196 -19 q 64 317 64 143 l 64 544 l 3 544 l 3 772 l 383 772 l 383 317 m 510 849 l 288 849 l 288 869 l 439 1081 l 736 1081 l 736 1043 l 510 849 z "},"ù":{"ha":939,"x_min":3,"x_max":925,"o":"m 383 317 q 403 249 383 269 q 464 228 424 228 q 524 249 504 228 q 544 317 544 269 l 544 544 l 469 544 l 469 772 l 864 772 l 864 228 l 925 228 l 925 0 l 544 0 l 544 94 q 506 57 528 76 q 457 21 485 38 q 393 -8 429 4 q 310 -19 357 -19 q 130 62 196 -19 q 64 317 64 143 l 64 544 l 3 544 l 3 772 l 383 772 l 383 317 m 140 1043 l 140 1081 l 438 1081 l 589 869 l 589 849 l 367 849 l 140 1043 z "},"ü":{"ha":939,"x_min":3,"x_max":925,"o":"m 383 317 q 403 249 383 269 q 464 228 424 228 q 524 249 504 228 q 544 317 544 269 l 544 544 l 469 544 l 469 772 l 864 772 l 864 228 l 925 228 l 925 0 l 544 0 l 544 94 q 506 57 528 76 q 457 21 485 38 q 393 -8 429 4 q 310 -19 357 -19 q 130 62 196 -19 q 64 317 64 143 l 64 544 l 3 544 l 3 772 l 383 772 l 383 317 m 163 1081 l 394 1081 l 394 849 l 163 849 l 163 1081 m 518 1081 l 749 1081 l 749 849 l 518 849 l 518 1081 z "},"û":{"ha":939,"x_min":3,"x_max":925,"o":"m 383 317 q 403 249 383 269 q 464 228 424 228 q 524 249 504 228 q 544 317 544 269 l 544 544 l 469 544 l 469 772 l 864 772 l 864 228 l 925 228 l 925 0 l 544 0 l 544 94 q 506 57 528 76 q 457 21 485 38 q 393 -8 429 4 q 310 -19 357 -19 q 130 62 196 -19 q 64 317 64 143 l 64 544 l 3 544 l 3 772 l 383 772 l 383 317 m 460 939 l 447 939 l 361 849 l 154 849 l 154 869 l 317 1081 l 590 1081 l 753 869 l 753 849 l 546 849 l 460 939 z "},"ý":{"ha":900,"x_min":3,"x_max":864,"o":"m 383 317 q 403 249 383 269 q 464 228 424 228 q 524 249 504 228 q 544 317 544 269 l 544 544 l 469 544 l 469 772 l 864 772 l 864 78 q 759 -229 864 -131 q 446 -328 654 -328 q 252 -315 346 -328 q 93 -282 158 -301 l 93 -54 q 238 -74 169 -68 q 394 -81 307 -81 q 507 -58 469 -81 q 544 36 544 -35 l 544 94 q 506 57 528 76 q 457 21 485 38 q 393 -8 429 4 q 310 -19 357 -19 q 130 62 196 -19 q 64 317 64 143 l 64 544 l 3 544 l 3 772 l 383 772 l 383 317 m 515 849 l 293 849 l 293 869 l 444 1081 l 742 1081 l 742 1043 l 515 849 z "},"ÿ":{"ha":900,"x_min":3,"x_max":864,"o":"m 383 317 q 403 249 383 269 q 464 228 424 228 q 524 249 504 228 q 544 317 544 269 l 544 544 l 469 544 l 469 772 l 864 772 l 864 78 q 759 -229 864 -131 q 446 -328 654 -328 q 252 -315 346 -328 q 93 -282 158 -301 l 93 -54 q 238 -74 169 -68 q 394 -81 307 -81 q 507 -58 469 -81 q 544 36 544 -35 l 544 94 q 506 57 528 76 q 457 21 485 38 q 393 -8 429 4 q 310 -19 357 -19 q 130 62 196 -19 q 64 317 64 143 l 64 544 l 3 544 l 3 772 l 383 772 l 383 317 m 168 1081 l 400 1081 l 400 849 l 168 849 l 168 1081 m 524 1081 l 754 1081 l 754 849 l 524 849 l 524 1081 z "},"ł":{"ha":517,"x_min":-49,"x_max":581,"o":"m 50 1081 l 431 1081 l 431 747 l 581 824 l 581 656 l 431 579 l 431 228 l 492 228 l 492 0 l 50 0 l 50 228 l 111 228 l 111 417 l -49 336 l -49 504 l 111 585 l 111 853 l 50 853 l 50 1081 z "},"ŀ":{"ha":774,"x_min":25,"x_max":728,"o":"m 25 1081 l 406 1081 l 406 228 l 467 228 l 467 0 l 25 0 l 25 228 l 86 228 l 86 853 l 25 853 l 25 1081 m 511 656 l 728 656 l 728 444 l 511 444 l 511 656 z "},"Ç":{"ha":1025,"x_min":25,"x_max":983,"o":"m 650 443 l 983 443 l 983 83 q 916 48 956 67 q 824 15 876 29 q 706 -10 772 0 q 604 -18 660 -17 l 604 -56 q 706 -87 667 -56 q 744 -186 744 -119 q 692 -302 744 -261 q 549 -343 640 -343 q 456 -335 500 -343 q 378 -318 413 -328 l 378 -219 q 446 -233 406 -226 q 533 -239 486 -239 q 569 -226 558 -239 q 581 -194 581 -214 q 569 -162 581 -175 q 533 -150 558 -150 l 472 -150 l 472 -15 q 338 11 400 -8 q 169 108 239 42 q 63 281 100 175 q 25 540 25 388 q 63 799 25 692 q 169 972 100 906 q 336 1069 238 1039 q 556 1100 435 1100 q 704 1090 639 1100 q 822 1066 769 1081 q 913 1033 874 1051 q 983 997 953 1014 l 983 650 l 650 650 l 650 750 q 626 828 650 804 q 556 853 603 853 q 485 828 508 853 q 461 750 461 804 l 461 331 q 485 252 461 276 q 556 228 508 228 q 626 252 603 228 q 650 331 650 276 l 650 443 z "},"ç":{"ha":769,"x_min":11,"x_max":750,"o":"m 350 336 q 378 256 350 285 q 474 228 407 228 q 610 235 542 228 q 742 253 678 242 l 742 35 q 685 15 715 25 q 617 -2 654 6 q 533 -14 579 -10 q 472 -18 506 -17 l 472 -54 q 574 -86 535 -54 q 613 -185 613 -118 q 560 -301 613 -260 q 417 -342 508 -342 q 324 -334 368 -342 q 246 -317 281 -326 l 246 -218 q 314 -231 274 -225 q 401 -237 354 -237 q 438 -225 426 -237 q 449 -193 449 -212 q 438 -161 449 -174 q 401 -149 426 -149 l 340 -149 l 340 -12 q 257 6 296 -7 q 124 81 179 31 q 40 208 69 132 q 11 386 11 283 q 40 564 11 488 q 124 691 69 640 q 257 767 179 742 q 431 792 335 792 q 537 783 489 792 q 624 763 585 775 q 694 735 663 750 q 750 706 725 719 l 750 431 l 511 431 l 511 456 q 491 524 511 503 q 431 544 471 544 q 371 524 392 544 q 350 456 350 503 l 350 336 z "},"ħ":{"ha":961,"x_min":-44,"x_max":947,"o":"m 506 228 l 567 228 l 567 456 q 547 524 567 503 q 486 544 526 544 q 426 524 446 544 q 406 456 406 503 l 406 228 l 467 228 l 467 0 l 25 0 l 25 228 l 86 228 l 86 853 l -44 853 l -44 963 l 25 963 l 25 1081 l 406 1081 l 406 963 l 629 963 l 629 853 l 406 853 l 406 678 q 443 715 422 694 q 492 751 464 735 q 557 780 521 768 q 640 792 593 792 q 820 710 754 792 q 886 456 886 629 l 886 228 l 947 228 l 947 0 l 506 0 l 506 228 z "},"":{"ha":417,"x_min":104,"x_max":313,"o":"m 104 -108 l 313 -108 l 313 -306 l 236 -462 l 117 -462 l 161 -306 l 104 -306 l 104 -108 z "},"ķ":{"ha":936,"x_min":25,"x_max":922,"o":"m 847 544 l 729 413 l 863 228 l 922 228 l 922 0 l 582 0 l 439 267 l 406 267 l 406 0 l 25 0 l 25 228 l 86 228 l 86 853 l 25 853 l 25 1081 l 406 1081 l 406 517 l 439 517 l 611 772 l 904 772 l 904 544 l 847 544 m 354 -108 l 563 -108 l 563 -306 l 486 -462 l 367 -462 l 411 -306 l 354 -306 l 354 -108 z "},"ŗ":{"ha":724,"x_min":25,"x_max":710,"o":"m 25 772 l 406 772 l 406 681 l 419 676 q 444 717 429 696 q 482 754 460 738 q 533 781 504 771 q 597 792 561 792 q 654 788 626 792 q 710 772 682 783 l 710 532 q 633 542 664 540 q 581 544 601 544 q 447 503 489 544 q 406 363 406 463 l 406 228 l 532 228 l 532 0 l 25 0 l 25 228 l 86 228 l 86 544 l 25 544 l 25 772 m 147 -108 l 356 -108 l 356 -306 l 279 -462 l 160 -462 l 204 -306 l 147 -306 l 147 -108 z "},"Ł":{"ha":932,"x_min":-17,"x_max":910,"o":"m 36 1081 l 636 1081 l 636 853 l 508 853 l 508 676 l 821 796 l 821 628 l 508 508 l 508 228 l 633 228 l 633 356 l 910 356 l 910 0 l 36 0 l 36 228 l 119 228 l 119 360 l -17 308 l -17 476 l 119 528 l 119 853 l 36 853 l 36 1081 z "},"Ŀ":{"ha":894,"x_min":7,"x_max":881,"o":"m 7 1081 l 607 1081 l 607 853 l 479 853 l 479 228 l 604 228 l 604 356 l 881 356 l 881 0 l 7 0 l 7 228 l 90 228 l 90 853 l 7 853 l 7 1081 m 664 656 l 881 656 l 881 444 l 664 444 l 664 656 z "},"ĸ":{"ha":936,"x_min":25,"x_max":922,"o":"m 847 544 l 729 413 l 863 228 l 922 228 l 922 0 l 582 0 l 439 267 l 406 267 l 406 0 l 25 0 l 25 228 l 86 228 l 86 544 l 25 544 l 25 772 l 406 772 l 406 517 l 439 517 l 611 772 l 904 772 l 904 544 l 847 544 z "},"€":{"ha":1004,"x_min":17,"x_max":985,"o":"m 732 853 q 603 817 649 853 q 544 708 557 781 l 928 708 l 908 599 l 540 599 l 540 493 l 890 493 l 871 383 l 544 383 q 600 266 556 304 q 732 228 644 228 q 844 242 783 228 q 957 276 904 257 l 957 64 q 901 35 933 50 q 827 8 868 21 q 735 -12 786 -4 q 624 -19 685 -19 q 435 3 521 -19 q 285 74 350 25 q 176 199 219 122 q 115 383 133 275 l 17 383 l 17 493 l 106 493 q 104 516 104 504 q 104 540 104 528 q 104 569 104 556 q 106 599 104 583 l 17 599 l 17 708 l 118 708 q 183 888 138 814 q 298 1010 229 963 q 456 1078 367 1057 q 653 1100 546 1100 q 763 1094 713 1100 q 853 1077 813 1088 q 927 1054 894 1067 q 985 1031 960 1042 l 947 818 q 848 842 903 832 q 732 853 793 853 z "},"Á":{"ha":1119,"x_min":25,"x_max":1111,"o":"m 567 228 l 650 228 l 626 339 l 439 339 l 417 228 l 500 228 l 500 0 l 25 0 l 25 228 l 81 228 l 315 1081 l 821 1081 l 1056 228 l 1111 228 l 1111 0 l 567 0 l 567 228 m 469 486 l 597 486 l 540 763 l 526 763 l 469 486 m 667 1168 l 393 1168 l 393 1189 l 544 1322 l 893 1322 l 893 1286 l 667 1168 z "},"À":{"ha":1119,"x_min":25,"x_max":1111,"o":"m 567 228 l 650 228 l 626 339 l 439 339 l 417 228 l 500 228 l 500 0 l 25 0 l 25 228 l 81 228 l 315 1081 l 821 1081 l 1056 228 l 1111 228 l 1111 0 l 567 0 l 567 228 m 469 486 l 597 486 l 540 763 l 526 763 l 469 486 m 208 1286 l 208 1322 l 557 1322 l 708 1189 l 708 1168 l 435 1168 l 208 1286 z "},"Ä":{"ha":1119,"x_min":25,"x_max":1111,"o":"m 567 228 l 650 228 l 626 339 l 439 339 l 417 228 l 500 228 l 500 0 l 25 0 l 25 228 l 81 228 l 315 1081 l 821 1081 l 1056 228 l 1111 228 l 1111 0 l 567 0 l 567 228 m 469 486 l 597 486 l 540 763 l 526 763 l 469 486 m 221 1322 l 481 1322 l 481 1168 l 221 1168 l 221 1322 m 618 1322 l 876 1322 l 876 1168 l 618 1168 l 618 1322 z "},"Â":{"ha":1119,"x_min":25,"x_max":1111,"o":"m 567 228 l 650 228 l 626 339 l 439 339 l 417 228 l 500 228 l 500 0 l 25 0 l 25 228 l 81 228 l 315 1081 l 821 1081 l 1056 228 l 1111 228 l 1111 0 l 567 0 l 567 228 m 469 486 l 597 486 l 540 763 l 526 763 l 469 486 m 567 1247 l 535 1247 l 425 1168 l 192 1168 l 192 1189 l 368 1322 l 733 1322 l 910 1189 l 910 1168 l 676 1168 l 567 1247 z "},"Ã":{"ha":1119,"x_min":25,"x_max":1111,"o":"m 567 228 l 650 228 l 626 339 l 439 339 l 417 228 l 500 228 l 500 0 l 25 0 l 25 228 l 81 228 l 315 1081 l 821 1081 l 1056 228 l 1111 228 l 1111 0 l 567 0 l 567 228 m 469 486 l 597 486 l 540 763 l 526 763 l 469 486 m 199 1161 q 207 1266 199 1221 q 235 1340 215 1311 q 290 1384 256 1369 q 379 1399 325 1399 q 479 1391 432 1399 q 571 1374 526 1383 q 657 1356 615 1364 q 740 1349 699 1349 q 806 1365 789 1349 q 822 1397 822 1382 l 900 1397 q 893 1293 900 1338 q 867 1219 886 1249 q 814 1174 847 1189 q 729 1160 781 1160 q 635 1168 682 1160 q 541 1186 588 1176 q 449 1204 494 1196 q 361 1213 404 1213 q 293 1194 314 1213 q 272 1161 272 1176 l 199 1161 z "},"Å":{"ha":1119,"x_min":25,"x_max":1111,"o":"m 567 228 l 650 228 l 626 339 l 439 339 l 417 228 l 500 228 l 500 0 l 25 0 l 25 228 l 81 228 l 315 1081 l 821 1081 l 1056 228 l 1111 228 l 1111 0 l 567 0 l 567 228 m 469 486 l 597 486 l 540 763 l 526 763 l 469 486 m 383 1269 q 397 1335 383 1304 q 433 1390 410 1367 q 486 1426 456 1413 q 553 1439 517 1439 q 619 1426 588 1439 q 673 1390 650 1413 q 709 1335 696 1367 q 722 1269 722 1304 q 709 1203 722 1233 q 673 1149 696 1172 q 619 1113 650 1126 q 553 1100 588 1100 q 486 1113 517 1100 q 433 1149 456 1126 q 397 1203 410 1172 q 383 1269 383 1233 m 497 1269 q 513 1230 497 1246 q 553 1214 529 1214 q 591 1230 575 1214 q 607 1269 607 1246 q 591 1308 607 1292 q 553 1324 575 1324 q 513 1308 529 1324 q 497 1269 497 1292 z "},"É":{"ha":1021,"x_min":36,"x_max":988,"o":"m 676 853 l 508 853 l 508 633 l 631 633 l 631 475 l 508 475 l 508 228 l 676 228 l 676 447 l 988 447 l 988 0 l 36 0 l 36 228 l 119 228 l 119 853 l 36 853 l 36 1081 l 988 1081 l 988 661 l 676 661 l 676 853 m 668 1168 l 394 1168 l 394 1189 l 546 1322 l 894 1322 l 894 1286 l 668 1168 z "},"È":{"ha":1021,"x_min":36,"x_max":988,"o":"m 676 853 l 508 853 l 508 633 l 631 633 l 631 475 l 508 475 l 508 228 l 676 228 l 676 447 l 988 447 l 988 0 l 36 0 l 36 228 l 119 228 l 119 853 l 36 853 l 36 1081 l 988 1081 l 988 661 l 676 661 l 676 853 m 210 1286 l 210 1322 l 558 1322 l 710 1189 l 710 1168 l 436 1168 l 210 1286 z "},"Ë":{"ha":1021,"x_min":36,"x_max":988,"o":"m 676 853 l 508 853 l 508 633 l 631 633 l 631 475 l 508 475 l 508 228 l 676 228 l 676 447 l 988 447 l 988 0 l 36 0 l 36 228 l 119 228 l 119 853 l 36 853 l 36 1081 l 988 1081 l 988 661 l 676 661 l 676 853 m 222 1322 l 482 1322 l 482 1168 l 222 1168 l 222 1322 m 619 1322 l 878 1322 l 878 1168 l 619 1168 l 619 1322 z "},"Ê":{"ha":1021,"x_min":36,"x_max":988,"o":"m 676 853 l 508 853 l 508 633 l 631 633 l 631 475 l 508 475 l 508 228 l 676 228 l 676 447 l 988 447 l 988 0 l 36 0 l 36 228 l 119 228 l 119 853 l 36 853 l 36 1081 l 988 1081 l 988 661 l 676 661 l 676 853 m 568 1247 l 536 1247 l 426 1168 l 193 1168 l 193 1189 l 369 1322 l 735 1322 l 911 1189 l 911 1168 l 678 1168 l 568 1247 z "},"Í":{"ha":608,"x_min":33,"x_max":667,"o":"m 33 1081 l 589 1081 l 589 853 l 506 853 l 506 228 l 589 228 l 589 0 l 33 0 l 33 228 l 117 228 l 117 853 l 33 853 l 33 1081 m 440 1168 l 167 1168 l 167 1189 l 318 1322 l 667 1322 l 667 1286 l 440 1168 z "},"Ì":{"ha":608,"x_min":-18,"x_max":589,"o":"m 33 1081 l 589 1081 l 589 853 l 506 853 l 506 228 l 589 228 l 589 0 l 33 0 l 33 228 l 117 228 l 117 853 l 33 853 l 33 1081 m -18 1286 l -18 1322 l 331 1322 l 482 1189 l 482 1168 l 208 1168 l -18 1286 z "},"Ï":{"ha":608,"x_min":-6,"x_max":650,"o":"m 33 1081 l 589 1081 l 589 853 l 506 853 l 506 228 l 589 228 l 589 0 l 33 0 l 33 228 l 117 228 l 117 853 l 33 853 l 33 1081 m -6 1322 l 254 1322 l 254 1168 l -6 1168 l -6 1322 m 392 1322 l 650 1322 l 650 1168 l 392 1168 l 392 1322 z "},"Î":{"ha":608,"x_min":-35,"x_max":683,"o":"m 33 1081 l 589 1081 l 589 853 l 506 853 l 506 228 l 589 228 l 589 0 l 33 0 l 33 228 l 117 228 l 117 853 l 33 853 l 33 1081 m 340 1247 l 308 1247 l 199 1168 l -35 1168 l -35 1189 l 142 1322 l 507 1322 l 683 1189 l 683 1168 l 450 1168 l 340 1247 z "},"Ĩ":{"ha":608,"x_min":-26,"x_max":675,"o":"m 33 1081 l 589 1081 l 589 853 l 506 853 l 506 228 l 589 228 l 589 0 l 33 0 l 33 228 l 117 228 l 117 853 l 33 853 l 33 1081 m -26 1161 q -18 1266 -26 1221 q 10 1340 -10 1311 q 65 1384 31 1369 q 154 1399 100 1399 q 254 1391 207 1399 q 346 1374 301 1383 q 432 1356 390 1364 q 515 1349 474 1349 q 581 1365 564 1349 q 597 1397 597 1382 l 675 1397 q 668 1293 675 1338 q 642 1219 661 1249 q 589 1174 622 1189 q 504 1160 556 1160 q 410 1168 457 1160 q 316 1186 363 1176 q 224 1204 269 1196 q 136 1213 179 1213 q 68 1194 89 1213 q 47 1161 47 1176 l -26 1161 z "},"Ĵ":{"ha":725,"x_min":19,"x_max":778,"o":"m 146 228 q 222 258 193 228 q 250 358 250 288 l 250 853 l 96 853 l 96 1081 l 722 1081 l 722 853 l 639 853 l 639 371 q 606 190 639 264 q 517 69 574 117 q 385 1 461 22 q 225 -19 310 -19 q 104 -10 163 -19 q 19 10 46 -1 l 19 243 q 85 232 50 236 q 146 228 119 228 m 435 1247 l 403 1247 l 293 1168 l 60 1168 l 60 1189 l 236 1322 l 601 1322 l 778 1189 l 778 1168 l 544 1168 l 435 1247 z "},"Ń":{"ha":1322,"x_min":31,"x_max":1314,"o":"m 828 1081 l 1314 1081 l 1314 853 l 1231 853 l 1231 0 l 840 0 l 433 626 l 433 228 l 517 228 l 517 0 l 31 0 l 31 228 l 114 228 l 114 853 l 31 853 l 31 1081 l 546 1081 l 911 522 l 911 853 l 828 853 l 828 1081 m 808 1168 l 535 1168 l 535 1189 l 686 1322 l 1035 1322 l 1035 1286 l 808 1168 z "},"Ñ":{"ha":1322,"x_min":31,"x_max":1314,"o":"m 828 1081 l 1314 1081 l 1314 853 l 1231 853 l 1231 0 l 840 0 l 433 626 l 433 228 l 517 228 l 517 0 l 31 0 l 31 228 l 114 228 l 114 853 l 31 853 l 31 1081 l 546 1081 l 911 522 l 911 853 l 828 853 l 828 1081 m 340 1161 q 349 1266 340 1221 q 377 1340 357 1311 q 432 1384 397 1369 q 521 1399 467 1399 q 621 1391 574 1399 q 713 1374 668 1383 q 799 1356 757 1364 q 882 1349 840 1349 q 947 1365 931 1349 q 964 1397 964 1382 l 1042 1397 q 1035 1293 1042 1338 q 1008 1219 1028 1249 q 956 1174 989 1189 q 871 1160 922 1160 q 776 1168 824 1160 q 683 1186 729 1176 q 591 1204 636 1196 q 503 1213 546 1213 q 435 1194 456 1213 q 414 1161 414 1176 l 340 1161 z "},"Ó":{"ha":1108,"x_min":28,"x_max":1089,"o":"m 558 228 q 629 252 606 228 q 653 331 653 276 l 653 750 q 629 828 653 804 q 558 853 606 853 q 488 828 511 853 q 464 750 464 804 l 464 331 q 488 252 464 276 q 558 228 511 228 m 1089 540 q 1051 281 1089 388 q 945 108 1014 175 q 778 11 876 42 q 558 -19 679 -19 q 339 11 438 -19 q 172 108 240 42 q 65 281 103 175 q 28 540 28 388 q 65 799 28 692 q 172 972 103 906 q 339 1069 240 1039 q 558 1100 438 1100 q 778 1069 679 1100 q 945 972 876 1039 q 1051 799 1014 906 q 1089 540 1089 692 m 682 1168 l 408 1168 l 408 1189 l 560 1322 l 908 1322 l 908 1286 l 682 1168 z "},"Ò":{"ha":1108,"x_min":28,"x_max":1089,"o":"m 558 228 q 629 252 606 228 q 653 331 653 276 l 653 750 q 629 828 653 804 q 558 853 606 853 q 488 828 511 853 q 464 750 464 804 l 464 331 q 488 252 464 276 q 558 228 511 228 m 1089 540 q 1051 281 1089 388 q 945 108 1014 175 q 778 11 876 42 q 558 -19 679 -19 q 339 11 438 -19 q 172 108 240 42 q 65 281 103 175 q 28 540 28 388 q 65 799 28 692 q 172 972 103 906 q 339 1069 240 1039 q 558 1100 438 1100 q 778 1069 679 1100 q 945 972 876 1039 q 1051 799 1014 906 q 1089 540 1089 692 m 224 1286 l 224 1322 l 572 1322 l 724 1189 l 724 1168 l 450 1168 l 224 1286 z "},"Ö":{"ha":1108,"x_min":28,"x_max":1089,"o":"m 558 228 q 629 252 606 228 q 653 331 653 276 l 653 750 q 629 828 653 804 q 558 853 606 853 q 488 828 511 853 q 464 750 464 804 l 464 331 q 488 252 464 276 q 558 228 511 228 m 1089 540 q 1051 281 1089 388 q 945 108 1014 175 q 778 11 876 42 q 558 -19 679 -19 q 339 11 438 -19 q 172 108 240 42 q 65 281 103 175 q 28 540 28 388 q 65 799 28 692 q 172 972 103 906 q 339 1069 240 1039 q 558 1100 438 1100 q 778 1069 679 1100 q 945 972 876 1039 q 1051 799 1014 906 q 1089 540 1089 692 m 236 1322 l 496 1322 l 496 1168 l 236 1168 l 236 1322 m 633 1322 l 892 1322 l 892 1168 l 633 1168 l 633 1322 z "},"Ô":{"ha":1108,"x_min":28,"x_max":1089,"o":"m 558 228 q 629 252 606 228 q 653 331 653 276 l 653 750 q 629 828 653 804 q 558 853 606 853 q 488 828 511 853 q 464 750 464 804 l 464 331 q 488 252 464 276 q 558 228 511 228 m 1089 540 q 1051 281 1089 388 q 945 108 1014 175 q 778 11 876 42 q 558 -19 679 -19 q 339 11 438 -19 q 172 108 240 42 q 65 281 103 175 q 28 540 28 388 q 65 799 28 692 q 172 972 103 906 q 339 1069 240 1039 q 558 1100 438 1100 q 778 1069 679 1100 q 945 972 876 1039 q 1051 799 1014 906 q 1089 540 1089 692 m 582 1247 l 550 1247 l 440 1168 l 207 1168 l 207 1189 l 383 1322 l 749 1322 l 925 1189 l 925 1168 l 692 1168 l 582 1247 z "},"Õ":{"ha":1108,"x_min":28,"x_max":1089,"o":"m 558 228 q 629 252 606 228 q 653 331 653 276 l 653 750 q 629 828 653 804 q 558 853 606 853 q 488 828 511 853 q 464 750 464 804 l 464 331 q 488 252 464 276 q 558 228 511 228 m 1089 540 q 1051 281 1089 388 q 945 108 1014 175 q 778 11 876 42 q 558 -19 679 -19 q 339 11 438 -19 q 172 108 240 42 q 65 281 103 175 q 28 540 28 388 q 65 799 28 692 q 172 972 103 906 q 339 1069 240 1039 q 558 1100 438 1100 q 778 1069 679 1100 q 945 972 876 1039 q 1051 799 1014 906 q 1089 540 1089 692 m 214 1161 q 222 1266 214 1221 q 251 1340 231 1311 q 306 1384 271 1369 q 394 1399 340 1399 q 494 1391 447 1399 q 586 1374 542 1383 q 672 1356 631 1364 q 756 1349 714 1349 q 821 1365 804 1349 q 838 1397 838 1382 l 915 1397 q 908 1293 915 1338 q 882 1219 901 1249 q 829 1174 863 1189 q 744 1160 796 1160 q 650 1168 697 1160 q 556 1186 603 1176 q 465 1204 510 1196 q 376 1213 419 1213 q 308 1194 329 1213 q 288 1161 288 1176 l 214 1161 z "},"Ŗ":{"ha":1131,"x_min":36,"x_max":1111,"o":"m 508 228 l 600 228 l 600 0 l 36 0 l 36 228 l 119 228 l 119 853 l 36 853 l 36 1081 l 688 1081 q 841 1064 772 1081 q 957 1010 910 1047 q 1030 914 1004 974 q 1056 768 1056 854 q 1019 608 1056 676 q 911 513 982 540 l 913 499 q 1046 335 1046 478 l 1046 228 l 1111 228 l 1111 0 l 671 0 l 671 326 q 662 394 671 368 q 633 433 653 419 q 582 451 613 446 q 508 456 551 456 l 508 228 m 583 625 q 644 646 624 625 q 664 714 664 667 l 664 764 q 644 832 664 811 q 583 853 624 853 l 508 853 l 508 625 l 583 625 m 475 -108 l 683 -108 l 683 -306 l 607 -462 l 488 -462 l 532 -306 l 475 -306 l 475 -108 z "},"Ŕ":{"ha":1131,"x_min":36,"x_max":1111,"o":"m 508 228 l 600 228 l 600 0 l 36 0 l 36 228 l 119 228 l 119 853 l 36 853 l 36 1081 l 688 1081 q 841 1064 772 1081 q 957 1010 910 1047 q 1030 914 1004 974 q 1056 768 1056 854 q 1019 608 1056 676 q 911 513 982 540 l 913 499 q 1046 335 1046 478 l 1046 228 l 1111 228 l 1111 0 l 671 0 l 671 326 q 662 394 671 368 q 633 433 653 419 q 582 451 613 446 q 508 456 551 456 l 508 228 m 583 625 q 644 646 624 625 q 664 714 664 667 l 664 764 q 644 832 664 811 q 583 853 624 853 l 508 853 l 508 625 l 583 625 m 663 1168 l 389 1168 l 389 1189 l 540 1322 l 889 1322 l 889 1286 l 663 1168 z "},"Ř":{"ha":1131,"x_min":36,"x_max":1111,"o":"m 508 228 l 600 228 l 600 0 l 36 0 l 36 228 l 119 228 l 119 853 l 36 853 l 36 1081 l 688 1081 q 841 1064 772 1081 q 957 1010 910 1047 q 1030 914 1004 974 q 1056 768 1056 854 q 1019 608 1056 676 q 911 513 982 540 l 913 499 q 1046 335 1046 478 l 1046 228 l 1111 228 l 1111 0 l 671 0 l 671 326 q 662 394 671 368 q 633 433 653 419 q 582 451 613 446 q 508 456 551 456 l 508 228 m 583 625 q 644 646 624 625 q 664 714 664 667 l 664 764 q 644 832 664 811 q 583 853 624 853 l 508 853 l 508 625 l 583 625 m 665 1322 l 899 1322 l 899 1301 l 722 1168 l 357 1168 l 181 1301 l 181 1322 l 414 1322 l 524 1243 l 556 1243 l 665 1322 z "},"Ú":{"ha":1104,"x_min":31,"x_max":1099,"o":"m 1015 388 q 984 198 1015 275 q 894 72 953 121 q 753 2 836 24 q 569 -19 671 -19 q 381 2 465 -19 q 238 72 297 24 q 147 198 179 121 q 114 388 114 275 l 114 853 l 31 853 l 31 1081 l 558 1081 l 558 853 l 503 853 l 503 317 q 523 249 503 269 q 583 228 543 228 q 644 249 624 228 q 664 317 664 269 l 664 853 l 608 853 l 608 1081 l 1099 1081 l 1099 853 l 1015 853 l 1015 388 m 704 1168 l 431 1168 l 431 1189 l 582 1322 l 931 1322 l 931 1286 l 704 1168 z "},"Ù":{"ha":1104,"x_min":31,"x_max":1099,"o":"m 1015 388 q 984 198 1015 275 q 894 72 953 121 q 753 2 836 24 q 569 -19 671 -19 q 381 2 465 -19 q 238 72 297 24 q 147 198 179 121 q 114 388 114 275 l 114 853 l 31 853 l 31 1081 l 558 1081 l 558 853 l 503 853 l 503 317 q 523 249 503 269 q 583 228 543 228 q 644 249 624 228 q 664 317 664 269 l 664 853 l 608 853 l 608 1081 l 1099 1081 l 1099 853 l 1015 853 l 1015 388 m 246 1286 l 246 1322 l 594 1322 l 746 1189 l 746 1168 l 472 1168 l 246 1286 z "},"Ü":{"ha":1104,"x_min":31,"x_max":1099,"o":"m 1015 388 q 984 198 1015 275 q 894 72 953 121 q 753 2 836 24 q 569 -19 671 -19 q 381 2 465 -19 q 238 72 297 24 q 147 198 179 121 q 114 388 114 275 l 114 853 l 31 853 l 31 1081 l 558 1081 l 558 853 l 503 853 l 503 317 q 523 249 503 269 q 583 228 543 228 q 644 249 624 228 q 664 317 664 269 l 664 853 l 608 853 l 608 1081 l 1099 1081 l 1099 853 l 1015 853 l 1015 388 m 258 1322 l 518 1322 l 518 1168 l 258 1168 l 258 1322 m 656 1322 l 914 1322 l 914 1168 l 656 1168 l 656 1322 z "},"Û":{"ha":1104,"x_min":31,"x_max":1099,"o":"m 1015 388 q 984 198 1015 275 q 894 72 953 121 q 753 2 836 24 q 569 -19 671 -19 q 381 2 465 -19 q 238 72 297 24 q 147 198 179 121 q 114 388 114 275 l 114 853 l 31 853 l 31 1081 l 558 1081 l 558 853 l 503 853 l 503 317 q 523 249 503 269 q 583 228 543 228 q 644 249 624 228 q 664 317 664 269 l 664 853 l 608 853 l 608 1081 l 1099 1081 l 1099 853 l 1015 853 l 1015 388 m 604 1247 l 572 1247 l 463 1168 l 229 1168 l 229 1189 l 406 1322 l 771 1322 l 947 1189 l 947 1168 l 714 1168 l 604 1247 z "},"Ý":{"ha":1049,"x_min":17,"x_max":1049,"o":"m 549 853 l 500 853 l 582 610 l 596 610 l 678 853 l 629 853 l 629 1081 l 1049 1081 l 1049 853 l 1000 853 l 732 372 l 732 228 l 815 228 l 815 0 l 260 0 l 260 228 l 343 228 l 343 372 l 67 853 l 17 853 l 17 1081 l 549 1081 l 549 853 m 704 1168 l 431 1168 l 431 1189 l 582 1322 l 931 1322 l 931 1286 l 704 1168 z "},"\u0001":{"ha":0,"x_min":0,"x_max":0,"o":""},"\u0002":{"ha":0,"x_min":0,"x_max":0,"o":""},"\u0003":{"ha":0,"x_min":0,"x_max":0,"o":""},"\u0004":{"ha":0,"x_min":0,"x_max":0,"o":""},"\u0005":{"ha":0,"x_min":0,"x_max":0,"o":""},"\u0006":{"ha":0,"x_min":0,"x_max":0,"o":""},"\u0007":{"ha":0,"x_min":0,"x_max":0,"o":""},"\b":{"ha":0,"x_min":0,"x_max":0,"o":""},"\t":{"ha":0,"x_min":0,"x_max":0,"o":""},"\u0010":{"ha":0,"x_min":0,"x_max":0,"o":""},"\u0011":{"ha":0,"x_min":0,"x_max":0,"o":""},"\u0012":{"ha":0,"x_min":0,"x_max":0,"o":""},"\u0013":{"ha":0,"x_min":0,"x_max":0,"o":""},"\u0014":{"ha":0,"x_min":0,"x_max":0,"o":""},"\u0015":{"ha":0,"x_min":0,"x_max":0,"o":""},"\u0016":{"ha":0,"x_min":0,"x_max":0,"o":""},"\u0017":{"ha":0,"x_min":0,"x_max":0,"o":""},"\u0018":{"ha":0,"x_min":0,"x_max":0,"o":""},"\u0019":{"ha":0,"x_min":0,"x_max":0,"o":""},"­":{"ha":467,"x_min":31,"x_max":435,"o":"m 31 286 l 31 514 l 435 514 l 435 286 l 31 286 z "},"$":{"ha":953,"x_min":31,"x_max":936,"o":"m 388 -183 l 388 -17 q 176 14 257 -8 q 43 56 96 36 l 43 331 l 349 331 q 365 269 349 289 q 435 249 382 249 q 500 263 481 249 q 519 304 519 276 q 503 338 519 324 q 439 372 488 353 q 259 447 336 411 q 131 525 182 482 q 56 626 81 568 q 31 765 31 683 q 49 890 31 833 q 110 988 68 946 q 219 1058 151 1031 q 388 1094 288 1085 l 388 1254 l 569 1254 l 569 1097 q 685 1084 635 1093 q 776 1063 735 1075 q 853 1038 818 1051 q 910 1011 888 1025 l 910 763 l 618 763 q 596 817 618 803 q 542 832 574 832 q 476 820 496 832 q 456 779 456 808 q 477 744 456 756 q 542 719 499 733 q 694 664 622 693 q 819 592 765 635 q 905 488 874 549 q 936 338 936 426 q 843 90 936 178 q 569 -15 750 1 l 569 -183 l 388 -183 z "},"÷":{"ha":724,"x_min":56,"x_max":668,"o":"m 249 844 l 465 844 l 465 633 l 249 633 l 249 844 m 249 283 l 465 283 l 465 72 l 249 72 l 249 283 m 56 361 l 56 561 l 668 561 l 668 361 l 56 361 z "},"¬":{"ha":760,"x_min":56,"x_max":696,"o":"m 472 172 l 472 392 l 56 392 l 56 592 l 696 592 l 696 172 l 472 172 z "},"°":{"ha":350,"x_min":6,"x_max":333,"o":"m 6 936 q 18 999 6 969 q 53 1051 31 1029 q 105 1087 75 1074 q 169 1100 135 1100 q 233 1087 203 1100 q 285 1051 263 1074 q 320 999 307 1029 q 333 936 333 969 q 320 872 333 901 q 285 819 307 842 q 233 785 263 797 q 169 772 203 772 q 52 819 99 772 q 6 936 6 865 m 106 936 q 124 891 106 910 q 169 872 143 872 q 213 891 194 872 q 232 936 232 910 q 213 980 232 961 q 169 999 194 999 q 124 980 143 999 q 106 936 106 961 z "},"º":{"ha":447,"x_min":14,"x_max":433,"o":"m 433 897 q 376 744 433 793 q 224 694 319 694 q 70 744 126 694 q 14 897 14 793 q 70 1049 14 999 q 224 1100 126 1100 q 376 1049 319 1100 q 433 897 433 999 m 224 804 q 278 849 278 804 l 278 946 q 224 990 278 990 q 169 946 169 990 l 169 849 q 224 804 169 804 z "},"ª":{"ha":468,"x_min":11,"x_max":451,"o":"m 261 751 q 219 715 249 735 q 140 694 190 694 q 46 722 81 694 q 11 803 11 750 q 71 903 11 869 q 261 936 131 936 q 249 977 261 964 q 197 990 238 990 q 115 985 157 990 q 36 969 74 979 l 36 1075 q 142 1095 96 1090 q 229 1100 188 1100 q 322 1090 285 1100 q 381 1058 358 1079 q 412 1005 403 1036 q 421 932 421 974 l 421 818 l 451 818 l 451 704 l 261 704 l 261 751 m 261 867 q 177 860 201 867 q 153 831 153 853 q 196 804 153 804 q 242 819 224 804 q 261 863 261 835 l 261 867 z "},"T":{"ha":1069,"x_min":22,"x_max":1067,"o":"m 22 1081 l 1067 1081 l 1067 744 l 828 744 l 828 853 l 739 853 l 739 228 l 836 228 l 836 0 l 253 0 l 253 228 l 350 228 l 350 853 l 261 853 l 261 744 l 22 744 l 22 1081 z "},"H":{"ha":1206,"x_min":33,"x_max":1186,"o":"m 643 1081 l 1186 1081 l 1186 853 l 1103 853 l 1103 228 l 1186 228 l 1186 0 l 643 0 l 643 228 l 714 228 l 714 457 l 506 457 l 506 228 l 576 228 l 576 0 l 33 0 l 33 228 l 117 228 l 117 853 l 33 853 l 33 1081 l 576 1081 l 576 853 l 506 853 l 506 642 l 714 642 l 714 853 l 643 853 l 643 1081 z "},"®":{"ha":992,"x_min":33,"x_max":958,"o":"m 472 521 l 508 521 l 508 425 l 293 425 l 293 521 l 331 521 l 331 758 l 293 758 l 293 856 l 550 856 q 658 827 621 856 q 696 732 696 799 q 640 628 696 654 l 640 622 q 679 603 665 617 q 693 557 693 589 l 693 521 l 721 521 l 721 425 l 553 425 l 553 553 q 531 597 553 589 q 472 606 508 606 l 472 521 m 522 674 q 543 681 536 674 q 550 708 550 689 l 550 738 q 522 772 550 772 l 472 772 l 472 674 l 522 674 m 33 638 q 69 817 33 733 q 169 965 106 901 q 316 1064 232 1028 q 496 1100 400 1100 q 676 1064 592 1100 q 823 965 760 1028 q 922 817 886 901 q 958 638 958 733 q 922 458 958 542 q 823 310 886 374 q 676 211 760 247 q 496 175 592 175 q 316 211 400 175 q 169 310 232 247 q 69 458 106 374 q 33 638 33 542 m 179 638 q 204 513 179 571 q 272 413 229 456 q 372 346 314 371 q 496 321 429 321 q 619 346 561 321 q 719 413 676 371 q 788 513 763 456 q 813 638 813 571 q 788 760 813 703 q 719 861 763 818 q 619 929 676 904 q 496 954 561 954 q 372 929 429 954 q 272 861 314 904 q 204 760 229 818 q 179 638 179 703 z "},"©":{"ha":992,"x_min":33,"x_max":958,"o":"m 544 560 l 663 560 l 663 460 q 599 431 639 444 q 494 417 560 417 q 343 468 399 417 q 288 639 288 519 q 342 810 288 758 q 493 861 397 861 q 599 847 558 861 q 663 817 639 832 l 663 722 l 544 722 l 544 736 q 493 775 544 775 q 443 736 443 775 l 443 540 q 493 503 443 503 q 544 540 544 503 l 544 560 m 33 638 q 69 817 33 733 q 169 965 106 901 q 316 1064 232 1028 q 496 1100 400 1100 q 676 1064 592 1100 q 823 965 760 1028 q 922 817 886 901 q 958 638 958 733 q 922 458 958 542 q 823 310 886 374 q 676 211 760 247 q 496 175 592 175 q 316 211 400 175 q 169 310 232 247 q 69 458 106 374 q 33 638 33 542 m 179 638 q 204 513 179 571 q 272 413 229 456 q 372 346 314 371 q 496 321 429 321 q 619 346 561 321 q 719 413 676 371 q 788 513 763 456 q 813 638 813 571 q 788 760 813 703 q 719 861 763 818 q 619 929 676 904 q 496 954 561 954 q 372 929 429 954 q 272 861 314 904 q 204 760 229 818 q 179 638 179 703 z "},"¯":{"ha":926,"x_min":263,"x_max":758,"o":"m 263 1025 l 758 1025 l 758 881 l 263 881 l 263 1025 z "},"¥":{"ha":1049,"x_min":17,"x_max":1049,"o":"m 549 853 l 500 853 l 582 610 l 596 610 l 678 853 l 629 853 l 629 1081 l 1049 1081 l 1049 853 l 1000 853 l 875 631 l 1000 631 l 1000 521 l 814 521 l 761 426 l 1000 426 l 1000 317 l 732 317 l 732 228 l 815 228 l 815 0 l 260 0 l 260 228 l 343 228 l 343 317 l 63 317 l 63 426 l 311 426 l 257 521 l 63 521 l 63 631 l 194 631 l 67 853 l 17 853 l 17 1081 l 549 1081 l 549 853 z "}}}
